/* XPM */
static char * gear2_xpm[] = {
"20 21 241 2",
"  	c None",
". 	c #F5F5FA",
"+ 	c #F5F5F9",
"@ 	c #FBFBFD",
"# 	c #D5D5E8",
"$ 	c #A4A4C7",
"% 	c #EBEBF3",
"& 	c #F4F4F9",
"* 	c #C9C9E1",
"= 	c #C6C6DE",
"- 	c #B4B4D5",
"; 	c #C6C6E1",
"> 	c #C5C5DF",
", 	c #8C8CA5",
"' 	c #F4F4F6",
") 	c #FEFEFE",
"! 	c #E7E7F1",
"~ 	c #CCCCE1",
"{ 	c #DDDDED",
"] 	c #C8C8E3",
"^ 	c #C0C0DF",
"/ 	c #9D9DBF",
"( 	c #8F8FB1",
"_ 	c #9E9EBC",
": 	c #FCFCFD",
"< 	c #EDEDF5",
"[ 	c #C1C1DA",
"} 	c #D3D3E6",
"| 	c #CBCBE5",
"1 	c #BABAD7",
"2 	c #BBBBDB",
"3 	c #CCCCE8",
"4 	c #C1C1E0",
"5 	c #C1C1E1",
"6 	c #8383A9",
"7 	c #AFAFBC",
"8 	c #C4C4E0",
"9 	c #ECECF5",
"0 	c #DBDBEC",
"a 	c #C9C9E3",
"b 	c #6A6A91",
"c 	c #78788F",
"d 	c #B0B0D4",
"e 	c #C7C7E5",
"f 	c #AEAED2",
"g 	c #65658F",
"h 	c #8D8D96",
"i 	c #FDFDFE",
"j 	c #FBFBFC",
"k 	c #FCFCFE",
"l 	c #A5A5C9",
"m 	c #AFAFD4",
"n 	c #D2D2E8",
"o 	c #CECEE7",
"p 	c #9898B9",
"q 	c #B0B0BD",
"r 	c #BFBFDF",
"s 	c #C9C9E5",
"t 	c #A1A1C7",
"u 	c #62627E",
"v 	c #EFEFF0",
"w 	c #E3E3EF",
"x 	c #CDCDE5",
"y 	c #B0B0CD",
"z 	c #F2F2F6",
"A 	c #DEDEEC",
"B 	c #9292B9",
"C 	c #7070A0",
"D 	c #C8C8E0",
"E 	c #D6D6EB",
"F 	c #C3C3E4",
"G 	c #CBCBE6",
"H 	c #C9C9E4",
"I 	c #B8B8DB",
"J 	c #7A7AA4",
"K 	c #DADAE4",
"L 	c #F7F7FA",
"M 	c #B8B8D6",
"N 	c #F1F1F5",
"O 	c #C7C7DE",
"P 	c #A7A7CE",
"Q 	c #C1C1DC",
"R 	c #D0D0E5",
"S 	c #8C8CB7",
"T 	c #C8C8E2",
"U 	c #C3C3DF",
"V 	c #D0D0EA",
"W 	c #9999C2",
"X 	c #A9A9D1",
"Y 	c #676793",
"Z 	c #82828F",
"` 	c #E9E9F3",
" .	c #CDCDE3",
"..	c #C0C0DA",
"+.	c #CFCFE5",
"@.	c #CBCBE4",
"#.	c #CACAE4",
"$.	c #CACAE5",
"%.	c #C7C7E2",
"&.	c #8383AD",
"*.	c #7979A6",
"=.	c #7474A2",
"-.	c #8D8DB3",
";.	c #B5B5D8",
">.	c #B2B2D7",
",.	c #5F5F83",
"'.	c #717188",
").	c #717186",
"!.	c #E5E5E5",
"~.	c #CACAE3",
"{.	c #E7E7F0",
"].	c #C6C6E0",
"^.	c #D2D2E7",
"/.	c #E0E0EF",
"(.	c #DBDBED",
"_.	c #CCCCE5",
":.	c #C4C4E2",
"<.	c #BABAD9",
"[.	c #B0B0D0",
"}.	c #A5A5CA",
"|.	c #5F5F7A",
"1.	c #79799C",
"2.	c #7979A8",
"3.	c #656583",
"4.	c #EEEEEE",
"5.	c #F9F9F9",
"6.	c #ABABCC",
"7.	c #BFBFD8",
"8.	c #D1D1E7",
"9.	c #D8D8E9",
"0.	c #D4D4E5",
"a.	c #9E9EC2",
"b.	c #ACACCD",
"c.	c #D0D0E7",
"d.	c #CFCFE6",
"e.	c #C5C5E2",
"f.	c #C8C8E4",
"g.	c #A1A1C8",
"h.	c #767694",
"i.	c #93939C",
"j.	c #68687B",
"k.	c #9898A2",
"l.	c #EAEAF3",
"m.	c #ACACCF",
"n.	c #C9C9E0",
"o.	c #CBCBE3",
"p.	c #E3E3F0",
"q.	c #7E7EA6",
"r.	c #585875",
"s.	c #8F8F9C",
"t.	c #A9A9C5",
"u.	c #B5B5D7",
"v.	c #595987",
"w.	c #7A7A88",
"x.	c #F6F6F7",
"y.	c #FCFCFC",
"z.	c #A4A4C6",
"A.	c #E8E8F2",
"B.	c #DCDCEC",
"C.	c #DCDCEE",
"D.	c #727298",
"E.	c #ABABB0",
"F.	c #EEEEF4",
"G.	c #B9B9DA",
"H.	c #BDBDDE",
"I.	c #7D7DA6",
"J.	c #8D8DAB",
"K.	c #9F9FC3",
"L.	c #CACAE2",
"M.	c #CBCBE2",
"N.	c #D7D7EC",
"O.	c #B2B2D4",
"P.	c #AFAFCF",
"Q.	c #EFEFF6",
"R.	c #BBBBDC",
"S.	c #8484B2",
"T.	c #A0A0AF",
"U.	c #A6A6C6",
"V.	c #73739B",
"W.	c #8787B1",
"X.	c #CFCFE7",
"Y.	c #C2C2E0",
"Z.	c #BABADB",
"`.	c #C2C2DE",
" +	c #9797C0",
".+	c #ABABD5",
"++	c #71719E",
"@+	c #858591",
"#+	c #DADADF",
"$+	c #9A9AC0",
"%+	c #D5D5EC",
"&+	c #C9C9E2",
"*+	c #C6C6E2",
"=+	c #B0B0D7",
"-+	c #62628B",
";+	c #59597B",
">+	c #6C6C84",
",+	c #E7E7E8",
"'+	c #E1E1EE",
")+	c #B5B5D4",
"!+	c #ABABD3",
"~+	c #C9C9EA",
"{+	c #C5C5E1",
"]+	c #BFBFDE",
"^+	c #A6A6CC",
"/+	c #B5B5D9",
"(+	c #B8B8DE",
"_+	c #6E6E91",
":+	c #ACACB6",
"<+	c #ECECF4",
"[+	c #8787B0",
"}+	c #646494",
"|+	c #5D5D83",
"1+	c #9090B6",
"2+	c #C9C9E7",
"3+	c #9494BB",
"4+	c #61618B",
"5+	c #8888B1",
"6+	c #B8B8E1",
"7+	c #696995",
"8+	c #A6A6B4",
"9+	c #DBDBE5",
"0+	c #717187",
"a+	c #A8A8AC",
"b+	c #8A8AA1",
"c+	c #9D9DC9",
"d+	c #616189",
"e+	c #6F6F7C",
"f+	c #9595A7",
"g+	c #727296",
"h+	c #53536F",
"i+	c #AFAFB3",
"j+	c #F9F9FA",
"k+	c #E9E9F0",
"l+	c #555583",
"m+	c #56566F",
"n+	c #D9D9DC",
"o+	c #E7E7E9",
"p+	c #A1A1A7",
"q+	c #D5D5D9",
"r+	c #B4B4B9",
"                      . + @ # $ %       ",
"                    & * = - ; > , ' )   ",
"                    ! ~ { ] ; ^ / ( _ : ",
"                  < [ } | 1 2 3 4 5 6 7 ",
"                : 8 9 0 a b c d e f g h ",
"        i 9 j   k l m n o p q r s t u v ",
"        w x y z A B C D E o F G H I J K ",
"  ) L i M N O P Q R S T U V o ; W X Y Z ",
"  `  ...* +.@.#.$.%.&.*.=.-.;.>.,.'.).!.",
": ~.+ {.].^./.(._.:.<.[.}.|.1.2.3.4.5.) ",
"  6.7.8.9.0.a.b.c.d.e.f.g.h.i.j.k.      ",
"l.m.n.o.p.q.r.s.t.H H u.v.w.x.y.y.      ",
"z.A.B.a C.D.E.  F.G.| H.I.J.:           ",
"K.L.M.a N.O.P.Q.s R.] 5 F S.T.          ",
"U.V.W.o a X.Y.Z.H.a `. +.+++@+)         ",
") #+$+%+$.&+@.#.X.*+=+-+;+>+,+          ",
"  '+*+)+!+~+{+]+^+/+(+_+:+i             ",
"  <+[+}+|+1+2+3+4+5+6+7+8+              ",
"    9+0+a+b+c+d+e+f+g+h+i+              ",
"      j+  k+l+m+n+  o+p+:               ",
"          ) q+r+y.                      "};
