/* XPM */
static char * geo1_xpm[] = {
"40 39 108 2",
"  	c #FFFFFF",
". 	c #F2F2F2",
"+ 	c #B0B0B0",
"@ 	c #C0C0C0",
"# 	c #E3E3E3",
"$ 	c #000000",
"% 	c #949494",
"& 	c #B3B3B3",
"* 	c #FAFAFA",
"= 	c #D7D7D7",
"- 	c #AEAEAE",
"; 	c #DFDFDF",
"> 	c #F6F6F6",
", 	c #F7F7F7",
"' 	c #DBDBDB",
") 	c #909090",
"! 	c #E0E0E0",
"~ 	c #FEFEFE",
"{ 	c #FDFDFD",
"] 	c #848484",
"^ 	c #CDCDCD",
"/ 	c #F0F0F0",
"( 	c #808080",
"_ 	c #9E9E9E",
": 	c #EBEBEB",
"< 	c #CECECE",
"[ 	c #B8B8B8",
"} 	c #DDDDDD",
"| 	c #E9E9E9",
"1 	c #D4D4D4",
"2 	c #DEDEDE",
"3 	c #ECECEC",
"4 	c #C5C5C5",
"5 	c #B6B6B6",
"6 	c #818181",
"7 	c #AFAFAF",
"8 	c #E2E2E2",
"9 	c #FCFCFC",
"0 	c #A4A4A4",
"a 	c #FBFBFB",
"b 	c #A2A2A2",
"c 	c #AAAAAA",
"d 	c #898989",
"e 	c #BCBCBC",
"f 	c #EEEEEE",
"g 	c #D9D9D9",
"h 	c #F9F9F9",
"i 	c #ACACAC",
"j 	c #D1D1D1",
"k 	c #F5F5F5",
"l 	c #F8F8F8",
"m 	c #989898",
"n 	c #B2B2B2",
"o 	c #CBCBCB",
"p 	c #A3A3A3",
"q 	c #9C9C9C",
"r 	c #DADADA",
"s 	c #D5D5D5",
"t 	c #B7B7B7",
"u 	c #B4B4B4",
"v 	c #E6E6E6",
"w 	c #EDEDED",
"x 	c #F4F4F4",
"y 	c #BABABA",
"z 	c #C6C6C6",
"A 	c #959595",
"B 	c #BEBEBE",
"C 	c #EAEAEA",
"D 	c #CFCFCF",
"E 	c #B1B1B1",
"F 	c #C9C9C9",
"G 	c #E4E4E4",
"H 	c #D6D6D6",
"I 	c #F1F1F1",
"J 	c #E7E7E7",
"K 	c #D0D0D0",
"L 	c #CACACA",
"M 	c #E1E1E1",
"N 	c #D3D3D3",
"O 	c #999999",
"P 	c #D8D8D8",
"Q 	c #A9A9A9",
"R 	c #C3C3C3",
"S 	c #BDBDBD",
"T 	c #8F8F8F",
"U 	c #929292",
"V 	c #8B8B8B",
"W 	c #A0A0A0",
"X 	c #888888",
"Y 	c #C1C1C1",
"Z 	c #C8C8C8",
"` 	c #E8E8E8",
" .	c #EFEFEF",
"..	c #E5E5E5",
"+.	c #8E8E8E",
"@.	c #C7C7C7",
"#.	c #DCDCDC",
"$.	c #858585",
"%.	c #BFBFBF",
"&.	c #F3F3F3",
"*.	c #BBBBBB",
"=.	c #8D8D8D",
"-.	c #9D9D9D",
";.	c #B5B5B5",
">.	c #C2C2C2",
",.	c #ADADAD",
"'.	c #ABABAB",
").	c #9B9B9B",
"                                                . + @ # $ $ %   &               ",
"                    * = - ; > ,               ' $ ) !       ~ { ] $ ^           ",
"              / ( ! & $ _ : < $ $ [       } $                     | 1 2 3       ",
"            4 $ 5                 { + 6 7 $ 8                         1 $ 9     ",
"        < 0 a                         b $ /                             c d     ",
"      e $ 3                         ~ f 9 g 3                             h >   ",
"      i >                           . j   / k /                             $ { ",
"  l m                               n       3 g                             $ o ",
"  p q                               ~         r s                           o t ",
"  $ .                             a u           r                             ~ ",
"  h                               : v           s                             $ ",
"_ 8                               / w           ~ &                           $ ",
"$ {                               a n             x                           $ ",
"$                                   ~             y                             ",
",                                   +             z                         c i ",
"A                                   l B           C                       , $ , ",
"$ ~                                   , h         +                       D E   ",
"$ v           ! # 7 > t F G [         ! H       I >                     f w     ",
"J l     ~ ~ + x ,           * r K v     v L     M J                   ' $ N     ",
"  O     ' P                       ^ x       +   +                   { $ J       ",
"  d Q y >                           R >       $ $ j           a u $ >           ",
"  , $ ~                               D ;   v $ S $ ~ T $ $ l U V v             ",
"  W X Y                                 Z . $ P       C J 3                     ",
"  $ h { u                               x I                                     ",
"~         7                           : / $                                     ",
"$ P       ~ H g |                 ~ L o h $ `                                   ",
"$               4  .@ g * o ..o n a C     +.@.                                  ",
"$                     2 ~ G                                                     ",
"                                          #.Q                                   ",
"$ >                                       A t                                   ",
"$.%.                                      $ &.                                  ",
"Z m                                       l                                     ",
"    l                                   *.*.                                    ",
"  f $                                 ` $ ,                                     ",
"    =.p                               -.s                                       ",
"    a u 9                         l ;.                                          ",
"        >.$ 3                   y $ ,.                                          ",
"          j $ { g I       ..%.> >.x                                             ",
"                '.$ $ x ).$ +.v                                                 "};
