/* XPM */
static char * geo2_xpm[] = {
"40 41 103 2",
"  	c #FFFFFF",
". 	c #B2B2B2",
"+ 	c #000000",
"@ 	c #AAAAAA",
"# 	c #DCDCDC",
"$ 	c #EBEBEB",
"% 	c #EAEAEA",
"& 	c #929292",
"* 	c #A3A3A3",
"= 	c #878787",
"- 	c #E1E1E1",
"; 	c #D8D8D8",
"> 	c #F5F5F5",
", 	c #B9B9B9",
"' 	c #F8F8F8",
") 	c #F3F3F3",
"! 	c #9E9E9E",
"~ 	c #C3C3C3",
"{ 	c #9B9B9B",
"] 	c #C1C1C1",
"^ 	c #E8E8E8",
"/ 	c #DFDFDF",
"( 	c #D1D1D1",
"_ 	c #D3D3D3",
": 	c #C2C2C2",
"< 	c #B5B5B5",
"[ 	c #FEFEFE",
"} 	c #CCCCCC",
"| 	c #F6F6F6",
"1 	c #D4D4D4",
"2 	c #F9F9F9",
"3 	c #FDFDFD",
"4 	c #8F8F8F",
"5 	c #9C9C9C",
"6 	c #CDCDCD",
"7 	c #E7E7E7",
"8 	c #FCFCFC",
"9 	c #DADADA",
"0 	c #A1A1A1",
"a 	c #858585",
"b 	c #C0C0C0",
"c 	c #D2D2D2",
"d 	c #BBBBBB",
"e 	c #D5D5D5",
"f 	c #9F9F9F",
"g 	c #EEEEEE",
"h 	c #DEDEDE",
"i 	c #A2A2A2",
"j 	c #A9A9A9",
"k 	c #FAFAFA",
"l 	c #C6C6C6",
"m 	c #F2F2F2",
"n 	c #CECECE",
"o 	c #B3B3B3",
"p 	c #B6B6B6",
"q 	c #D9D9D9",
"r 	c #E4E4E4",
"s 	c #BFBFBF",
"t 	c #969696",
"u 	c #B0B0B0",
"v 	c #F1F1F1",
"w 	c #EDEDED",
"x 	c #C7C7C7",
"y 	c #F0F0F0",
"z 	c #B8B8B8",
"A 	c #ECECEC",
"B 	c #A6A6A6",
"C 	c #C5C5C5",
"D 	c #E2E2E2",
"E 	c #B4B4B4",
"F 	c #BABABA",
"G 	c #DBDBDB",
"H 	c #FBFBFB",
"I 	c #D0D0D0",
"J 	c #EFEFEF",
"K 	c #BCBCBC",
"L 	c #D6D6D6",
"M 	c #A4A4A4",
"N 	c #A0A0A0",
"O 	c #BEBEBE",
"P 	c #CBCBCB",
"Q 	c #848484",
"R 	c #8C8C8C",
"S 	c #B7B7B7",
"T 	c #F4F4F4",
"U 	c #919191",
"V 	c #CACACA",
"W 	c #8E8E8E",
"X 	c #888888",
"Y 	c #D7D7D7",
"Z 	c #B1B1B1",
"` 	c #E0E0E0",
" .	c #E9E9E9",
"..	c #DDDDDD",
"+.	c #ACACAC",
"@.	c #F7F7F7",
"#.	c #ADADAD",
"$.	c #E6E6E6",
"%.	c #AEAEAE",
"&.	c #949494",
"*.	c #909090",
"=.	c #979797",
"-.	c #E5E5E5",
"                                                          . + @ # + + $         ",
"              % & *   + = -                           ; > , '       - ) ! >     ",
"          ~ ) { ] ^   / ( _ : < [                   } + |               1 + 2   ",
"      3 + 4 >               > 5 +           ' 1 }   + '                   6 7   ",
"    3 8 (                         9 0 + +   a = b c                         d 9 ",
"  8 + e                           ) f g           #                         h + ",
"  i j                               ' k         g l                           a ",
"  m 3                                 <         k 3                             ",
"n o                                   3 p       q r                           + ",
"+ $                                     3         s                         8 + ",
"t                                       u         v                         w x ",
"y                                       q         1 -                     [ z   ",
"+                                       e         [ u r                 [ + .   ",
"+                                       A B + C : + + + <             8 D E     ",
"F                                       + < G 8       H I h 4 d J q + +         ",
"k K                                   L +                   ~ M ^ c 7           ",
"  + [                                 D -                                       ",
"  N C                               _ O                                         ",
"    8 P                           v + y                                         ",
"    [ + <                         } q                                           ",
"      3 Q 3 8               3 f +                                               ",
"        R w p _ A 2 H J r 2 < * [                                               ",
"        +     2 8 S T n ] +                                                     ",
"        U               z B                                                     ",
"      8 |               V -                                                     ",
"      n W               q                                                       ",
"      M X 8 . Y Y Z   [ +                                                       ",
"    # + `           A C +                                                       ",
"  3 % y               8 Q  .                                                    ",
"  + |                   ..+                                                     ",
"B M                       +.|                                                   ",
"q @.                        V                                                   ",
"#.                          +                                                   ",
"+                           +                                                   ",
"+                           $.                                                  ",
"3                          .%.                                                  ",
"c &.                      X ]                                                   ",
"  + `                   3 *.                                                    ",
"  % ; 2               ; s                                                       ",
"      + &.@.        =.+ g                                                       ",
"        #.C l + + A -.                                                          "};
