/* XPM */
static char * geo3_xpm[] = {
"40 41 105 2",
"  	c #FFFFFF",
". 	c #E5E5E5",
"+ 	c #BEBEBE",
"@ 	c #F8F8F8",
"# 	c #B4B4B4",
"$ 	c #000000",
"% 	c #D1D1D1",
"& 	c #E7E7E7",
"* 	c #EEEEEE",
"= 	c #ADADAD",
"- 	c #848484",
"; 	c #EFEFEF",
"> 	c #AAAAAA",
", 	c #F1F1F1",
"' 	c #CFCFCF",
") 	c #E8E8E8",
"! 	c #C1C1C1",
"~ 	c #DEDEDE",
"{ 	c #8A8A8A",
"] 	c #9F9F9F",
"^ 	c #BFBFBF",
"/ 	c #FEFEFE",
"( 	c #DFDFDF",
"_ 	c #D0D0D0",
": 	c #ECECEC",
"< 	c #8B8B8B",
"[ 	c #9A9A9A",
"} 	c #BCBCBC",
"| 	c #DADADA",
"1 	c #F4F4F4",
"2 	c #E1E1E1",
"3 	c #979797",
"4 	c #F2F2F2",
"5 	c #FCFCFC",
"6 	c #FDFDFD",
"7 	c #F9F9F9",
"8 	c #FBFBFB",
"9 	c #C9C9C9",
"0 	c #EBEBEB",
"a 	c #D6D6D6",
"b 	c #B8B8B8",
"c 	c #D8D8D8",
"d 	c #EDEDED",
"e 	c #E3E3E3",
"f 	c #8E8E8E",
"g 	c #D7D7D7",
"h 	c #E6E6E6",
"i 	c #EAEAEA",
"j 	c #B9B9B9",
"k 	c #C5C5C5",
"l 	c #F5F5F5",
"m 	c #CDCDCD",
"n 	c #C6C6C6",
"o 	c #C8C8C8",
"p 	c #D4D4D4",
"q 	c #E4E4E4",
"r 	c #DBDBDB",
"s 	c #989898",
"t 	c #F7F7F7",
"u 	c #BBBBBB",
"v 	c #BABABA",
"w 	c #FAFAFA",
"x 	c #C2C2C2",
"y 	c #E2E2E2",
"z 	c #D2D2D2",
"A 	c #C0C0C0",
"B 	c #CACACA",
"C 	c #C3C3C3",
"D 	c #B1B1B1",
"E 	c #9C9C9C",
"F 	c #B6B6B6",
"G 	c #9E9E9E",
"H 	c #828282",
"I 	c #959595",
"J 	c #919191",
"K 	c #929292",
"L 	c #DCDCDC",
"M 	c #A0A0A0",
"N 	c #A1A1A1",
"O 	c #B2B2B2",
"P 	c #E9E9E9",
"Q 	c #CECECE",
"R 	c #949494",
"S 	c #A6A6A6",
"T 	c #DDDDDD",
"U 	c #B7B7B7",
"V 	c #BDBDBD",
"W 	c #898989",
"X 	c #F0F0F0",
"Y 	c #F3F3F3",
"Z 	c #D5D5D5",
"` 	c #E0E0E0",
" .	c #C4C4C4",
"..	c #F6F6F6",
"+.	c #A7A7A7",
"@.	c #9B9B9B",
"#.	c #888888",
"$.	c #D9D9D9",
"%.	c #808080",
"&.	c #969696",
"*.	c #8F8F8F",
"=.	c #CCCCCC",
"-.	c #A8A8A8",
";.	c #A4A4A4",
">.	c #A2A2A2",
"                                                . + @ # $ $ $ $ % & *           ",
"                                      = - $   $ $ - ; > ,         ' $ $ &       ",
"                      ) ! ~ ~ $ $ {   ] ^ &     / ( ~                 _ :       ",
"              /   < [ $ $ } | ;                 ! 1                     / $ 2   ",
"            3 $ 4 5       6 7 ^ ; 8           9 0                         a $   ",
"          b $ /                 c d )       7 e                             f / ",
"        +                         @ g       4 h                               i ",
"      j $                           , k     ! l                               $ ",
"      $ i                             g ~   4                                 $ ",
"    / m                               6 7   n                                 $ ",
"    o :                                 }   p q                                 ",
"    $ r                                 ^   6                               b s ",
"    $ 4                                 t   6 u                             $ . ",
"    $                                   v w   l ^                         5 $   ",
"    $ @                                 x 9     4 y                     z :     ",
"    h A                                 a w     @ i k                 ! $ i     ",
"  q B l /                             % C ,         ; } 6 &     l ~ & $ 0       ",
"  D E g ~                           c q F             @ 8 G $ H I J             ",
"  K v   L |                       , ; 6         0 M $ N 4 $ O P                 ",
"  Q 0     4 !                   ' h )   R $ $ n ~ S L                           ",
"  T           U , 4       l 6 V c t 9 W > 9 7                                   ",
"  $             i i F X k I 2 ' n   Y $ Z                                       ",
"  $           7 t (   7   4           $ 7                                       ",
"8 {     w l O h ` Z @  .j 5           )                                         ",
"      % y T               4 o       ..D                                         ",
"} 3 Y e                       O     ' $                                         ",
"[ > C                           F   +.@.                                        ",
"#.f                               $.c e                                         ",
"& q                               ~ g                                           ",
"%.4                               j $                                           ",
"$                                 / $                                           ",
"$                                 : J                                           ",
"$                                 O &.                                          ",
"*.w                               $ =.                                          ",
"                                  W w                                           ",
"$.$                             ;                                               ",
"  $ -.                        8 $ h                                             ",
"  w S                         $ ;.                                              ",
"      M +.                0 / A                                                 ",
"      w $ $   w       h s $ &                                                   ",
"          T   f $ $ y 9 >.7                                                     "};
