/* XPM */
static char * open_noborder_xpm[] = {
"36 37 572 2",
"  	c #FFFFFF",
". 	c #C5C5D5",
"+ 	c #65656D",
"@ 	c #41383C",
"# 	c #563F43",
"$ 	c #4A4449",
"% 	c #75757E",
"& 	c #8A8A95",
"* 	c #C8C8D7",
"= 	c #DBDBEC",
"- 	c #B9B9C7",
"; 	c #9A9AA6",
"> 	c #AEAEBB",
", 	c #D5D5E5",
"' 	c #A5A5B2",
") 	c #432C2D",
"! 	c #C36565",
"~ 	c #F78B8B",
"{ 	c #F69191",
"] 	c #E98282",
"^ 	c #BC7373",
"/ 	c #C2BCBC",
"( 	c #727272",
"_ 	c #82828B",
": 	c #A2A2AF",
"< 	c #3C2F32",
"[ 	c #713A3A",
"} 	c #824444",
"| 	c #7D4040",
"1 	c #7D7D87",
"2 	c #B5B5C3",
"3 	c #442526",
"4 	c #E17575",
"5 	c #FAC0C0",
"6 	c #FCDBDB",
"7 	c #FAB5B5",
"8 	c #F39C9C",
"9 	c #FDFBFB",
"0 	c #AEAAAA",
"a 	c #83838D",
"b 	c #91919D",
"c 	c #613232",
"d 	c #EE7D7D",
"e 	c #F89494",
"f 	c #F9ADAD",
"g 	c #F9A5A5",
"h 	c #F28585",
"i 	c #5A5A5E",
"j 	c #4E4C51",
"k 	c #A55656",
"l 	c #DA7373",
"m 	c #EC9494",
"n 	c #FBD1D1",
"o 	c #FBF4F4",
"p 	c #FACBCB",
"q 	c #F67F7F",
"r 	c #F4C9C9",
"s 	c #FDFDFD",
"t 	c #5D5D5F",
"u 	c #D7D7E8",
"v 	c #4F2D2D",
"w 	c #F47D7D",
"x 	c #F78D8D",
"y 	c #FABBBB",
"z 	c #F59E9E",
"A 	c #572D2D",
"B 	c #241516",
"C 	c #AB5858",
"D 	c #CA6969",
"E 	c #E68585",
"F 	c #F3A4A4",
"G 	c #F88080",
"H 	c #FCFCFC",
"I 	c #858585",
"J 	c #6E6E76",
"K 	c #BA5F5F",
"L 	c #E99797",
"M 	c #D26E6E",
"N 	c #A15353",
"O 	c #332929",
"P 	c #B45C5C",
"Q 	c #E67D7D",
"R 	c #EB8585",
"S 	c #F77F7F",
"T 	c #F9F9F9",
"U 	c #EA7979",
"V 	c #F68181",
"W 	c #D37474",
"X 	c #B7ABAB",
"Y 	c #AEAEAE",
"Z 	c #6A5454",
"` 	c #A25454",
" .	c #DD7373",
"..	c #E77777",
"+.	c #F07B7B",
"@.	c #F57E7E",
"#.	c #ECECEC",
"$.	c #5A5A5B",
"%.	c #F27E7E",
"&.	c #E97D7D",
"*.	c #AB6F6F",
"=.	c #D6D2D2",
"-.	c #FBFBFB",
";.	c #DFDFDF",
">.	c #715D5D",
",.	c #773D3D",
"'.	c #CE6B6B",
").	c #E07373",
"!.	c #BF8E8E",
"~.	c #69696A",
"{.	c #6B6B74",
"].	c #D9D9EA",
"^.	c #C16363",
"/.	c #ED7A7A",
"(.	c #D06B6B",
"_.	c #B27979",
":.	c #DCDCDC",
"<.	c #FEFEFE",
"[.	c #766A6A",
"}.	c #814E4E",
"|.	c #974E4E",
"1.	c #9E5151",
"2.	c #793E3E",
"3.	c #4C3334",
"4.	c #5C2F2F",
"5.	c #C3C3D2",
"6.	c #F7F1DE",
"7.	c #EEE1BB",
"8.	c #EBDEB8",
"9.	c #F3F0E7",
"0.	c #BD8585",
"a.	c #D1D1D1",
"b.	c #B1B1B1",
"c.	c #989898",
"d.	c #938282",
"e.	c #5F4D4D",
"f.	c #625D5D",
"g.	c #784D4D",
"h.	c #D77E7E",
"i.	c #DDBD5E",
"j.	c #DFC579",
"k.	c #DAB74D",
"l.	c #E2C670",
"m.	c #E6CC80",
"n.	c #EFDFAF",
"o.	c #F2E6BF",
"p.	c #CCAA40",
"q.	c #DADADA",
"r.	c #D56E6E",
"s.	c #CD7C7C",
"t.	c #E9E9E9",
"u.	c #919191",
"v.	c #7E7E7E",
"w.	c #CBCBCB",
"x.	c #A3A2A2",
"y.	c #B39696",
"z.	c #DE9797",
"A.	c #BE6262",
"B.	c #5E5E64",
"C.	c #F0E3BD",
"D.	c #E6CB7B",
"E.	c #FFFDEC",
"F.	c #FFFDE1",
"G.	c #FFFECA",
"H.	c #FFFEC3",
"I.	c #FFFFB1",
"J.	c #FFFED5",
"K.	c #F2E4B9",
"L.	c #A7945B",
"M.	c #B39D9D",
"N.	c #E5E5E5",
"O.	c #6D6D6D",
"P.	c #BABABA",
"Q.	c #FAFAFA",
"R.	c #D9D9D9",
"S.	c #B87F7F",
"T.	c #D8B54C",
"U.	c #FCF4E3",
"V.	c #FFFFA4",
"W.	c #FFFF99",
"X.	c #FFFBE2",
"Y.	c #DEC67F",
"Z.	c #D2D2E2",
"`.	c #CC7474",
" +	c #CDB2B2",
".+	c #F3F3F3",
"++	c #F5F5F5",
"@+	c #F7F7F7",
"#+	c #EFEFEF",
"$+	c #515151",
"%+	c #767676",
"&+	c #CFCFCF",
"*+	c #C4B0B0",
"=+	c #F28181",
"-+	c #6A4D4D",
";+	c #A8A8B5",
">+	c #E6C975",
",+	c #FFFBCC",
"'+	c #FFFEA3",
")+	c #FFFBD7",
"!+	c #8F8F9A",
"~+	c #A99797",
"{+	c #C9C9C9",
"]+	c #D5D5D5",
"^+	c #434343",
"/+	c #DEDBDB",
"(+	c #E5CECE",
"_+	c #E7E7E7",
":+	c #EADAAA",
"<+	c #F2DEAA",
"[+	c #FFFDAC",
"}+	c #A95757",
"|+	c #7B4343",
"1+	c #6D5555",
"2+	c #545456",
"3+	c #383838",
"4+	c #181818",
"5+	c #464647",
"6+	c #4E4E4E",
"7+	c #828282",
"8+	c #EADEBD",
"9+	c #EFEAD9",
"0+	c #C9C5C5",
"a+	c #EADDB7",
"b+	c #F2DDA6",
"c+	c #FFFAA8",
"d+	c #FFFC96",
"e+	c #F37D7D",
"f+	c #8E4949",
"g+	c #654444",
"h+	c #DDCA5F",
"i+	c #C69F1C",
"j+	c #A98A2C",
"k+	c #C4AA5D",
"l+	c #D2B96D",
"m+	c #DAC37F",
"n+	c #ECE1BF",
"o+	c #CBAA45",
"p+	c #C5C5C5",
"q+	c #E9DCB6",
"r+	c #F2DBA0",
"s+	c #FFF4A1",
"t+	c #FFF58F",
"u+	c #E4C066",
"v+	c #D9B460",
"w+	c #DDC480",
"x+	c #E9DBB0",
"y+	c #EFE4C1",
"z+	c #F8F8F8",
"A+	c #F0F0EF",
"B+	c #EDEDEB",
"C+	c #EDEDEA",
"D+	c #F1EFE3",
"E+	c #AC8F3B",
"F+	c #A6A6A6",
"G+	c #F1F1F1",
"H+	c #B5B5B5",
"I+	c #E9C974",
"J+	c #FFEC97",
"K+	c #FFEB85",
"L+	c #DCDCED",
"M+	c #DFBA68",
"N+	c #F8EDED",
"O+	c #F5EDE5",
"P+	c #F5F4EA",
"Q+	c #FBFBEB",
"R+	c #FEFEE8",
"S+	c #FFFFE8",
"T+	c #FFFFEF",
"U+	c #FEFED6",
"V+	c #FAFAC4",
"W+	c #EAEAAA",
"X+	c #EBEB9C",
"Y+	c #DBC686",
"Z+	c #65604F",
"`+	c #989797",
" @	c #4C4545",
".@	c #E6C364",
"+@	c #FFE795",
"@@	c #FFE47E",
"#@	c #F5D667",
"$@	c #EFCD57",
"%@	c #E0BD4E",
"&@	c #CAAF5D",
"*@	c #EBE5E3",
"=@	c #EEE6C7",
"-@	c #EFEFCC",
";@	c #F2F2D0",
">@	c #FDFDDB",
",@	c #FEFEDD",
"'@	c #FFFFDF",
")@	c #FEFED5",
"!@	c #FDFDCC",
"~@	c #DFDFA4",
"{@	c #DADA96",
"]@	c #A88C3D",
"^@	c #686363",
"/@	c #BAB4B4",
"(@	c #E6C160",
"_@	c #FFE29A",
":@	c #FFDA74",
"<@	c #ECC34A",
"[@	c #DFB32D",
"}@	c #E6C45E",
"|@	c #DFBF60",
"1@	c #E4CD8B",
"2@	c #E1D7B5",
"3@	c #E5DFCF",
"4@	c #E9E9E6",
"5@	c #DBDBB4",
"6@	c #DADAAF",
"7@	c #E6E6BE",
"8@	c #EDEDC6",
"9@	c #FCFCD4",
"0@	c #FEFED7",
"a@	c #FEFECF",
"b@	c #FFFFC5",
"c@	c #E5E5A5",
"d@	c #C8B787",
"e@	c #715D3D",
"f@	c #898787",
"g@	c #D1CDCD",
"h@	c #FAF3F3",
"i@	c #E6C15D",
"j@	c #FFDE93",
"k@	c #FFD36D",
"l@	c #E6B637",
"m@	c #E9D28F",
"n@	c #FFFFF0",
"o@	c #FAFAE6",
"p@	c #EAEAC6",
"q@	c #F6F6C9",
"r@	c #F8F8CA",
"s@	c #F7F7C3",
"t@	c #EAEABA",
"u@	c #D6D6A6",
"v@	c #E1E1B1",
"w@	c #E5E5B6",
"x@	c #F8F8C8",
"y@	c #FDFDCD",
"z@	c #FEFECE",
"A@	c #FEFEC5",
"B@	c #FFFFBF",
"C@	c #DDD595",
"D@	c #A2823A",
"E@	c #635858",
"F@	c #B2B2B2",
"G@	c #F0F0F0",
"H@	c #E6BF59",
"I@	c #FFD88C",
"J@	c #FFCC66",
"K@	c #E2BF5C",
"L@	c #FFFFF3",
"M@	c #FFFFAD",
"N@	c #FFFFA3",
"O@	c #E4E4A2",
"P@	c #E9E9A6",
"Q@	c #FDFDBE",
"R@	c #FEFEC3",
"S@	c #FEFEC4",
"T@	c #F9F9BF",
"U@	c #E2E2A8",
"V@	c #ECECB2",
"W@	c #DBDBA1",
"X@	c #EBEBB1",
"Y@	c #FBFBC1",
"Z@	c #FCFCC2",
"`@	c #FDFDC3",
" #	c #FEFEBE",
".#	c #F6F3B3",
"+#	c #C0AD7C",
"@#	c #755D3A",
"##	c #7D7D7D",
"$#	c #D6D6D6",
"%#	c #FFFEFE",
"&#	c #D9AC2B",
"*#	c #FDD685",
"=#	c #FBC85F",
"-#	c #F2BF4D",
";#	c #FFFFD2",
">#	c #C7C788",
",#	c #FFFFBE",
"'#	c #F9F9B9",
")#	c #ECECAC",
"!#	c #E1E1A1",
"~#	c #D2D292",
"{#	c #E2E2A2",
"]#	c #F4F4B4",
"^#	c #F6F6B6",
"/#	c #E3E0A0",
"(#	c #C3B775",
"_#	c #BD9740",
":#	c #625D54",
"<#	c #A9A9A9",
"[#	c #EDEDED",
"}#	c #D9AE34",
"|#	c #FDD88B",
"1#	c #F7C456",
"2#	c #E4B130",
"3#	c #F9F2DF",
"4#	c #FFFBA8",
"5#	c #FFFA94",
"6#	c #C6C284",
"7#	c #FFFCBC",
"8#	c #FFFBBB",
"9#	c #FEFBBB",
"0#	c #FEFABA",
"a#	c #F9F6B6",
"b#	c #F1EEAE",
"c#	c #E8E5A5",
"d#	c #DDD999",
"e#	c #CFC989",
"f#	c #C7BA7A",
"g#	c #BBAE6C",
"h#	c #B4AB68",
"i#	c #DAD18F",
"j#	c #886F23",
"k#	c #747474",
"l#	c #CECECE",
"m#	c #DBB95C",
"n#	c #FCD789",
"o#	c #DDB33E",
"p#	c #FFFEF1",
"q#	c #FFF690",
"r#	c #CFC98D",
"s#	c #EEE8A8",
"t#	c #FFF9B9",
"u#	c #FEF8B8",
"v#	c #FBF6B6",
"w#	c #F8F2B2",
"x#	c #EFEAAA",
"y#	c #E8E3A3",
"z#	c #E8E0A0",
"A#	c #E1C988",
"B#	c #C7B777",
"C#	c #F3DB80",
"D#	c #F8EC93",
"E#	c #DEBF42",
"F#	c #635D4A",
"G#	c #9D9D9D",
"H#	c #E8E8E8",
"I#	c #DDBB5D",
"J#	c #FBD380",
"K#	c #EAB73B",
"L#	c #FFF9D3",
"M#	c #FFF08A",
"N#	c #EEE5AB",
"O#	c #C3B97A",
"P#	c #FAF0B0",
"Q#	c #FDF4B4",
"R#	c #FBF1B1",
"S#	c #F4EAAA",
"T#	c #E3DA9A",
"U#	c #E3CF8E",
"V#	c #ECCB88",
"W#	c #C7B373",
"X#	c #FFE680",
"Y#	c #FCF99D",
"Z#	c #9C7F24",
"`#	c #6B6B6B",
" $	c #F7F6F6",
".$	c #D7B349",
"+$	c #F9D179",
"@$	c #DEAB24",
"#$	c #F5ECCF",
"$$	c #FFF2AC",
"%$	c #FFEC86",
"&$	c #E1D59A",
"*$	c #C0B476",
"=$	c #DFD393",
"-$	c #E8DC9C",
";$	c #E2D593",
">$	c #DCC07D",
",$	c #F0C77D",
"'$	c #C7B171",
")$	c #FFE37D",
"!$	c #E6CC4F",
"~$	c #6F623C",
"{$	c #E2E2E2",
"]$	c #D0AA38",
"^$	c #FAD077",
"/$	c #DAAE30",
"($	c #FFFDF7",
"_$	c #F1E2A6",
":$	c #DCCC8D",
"<$	c #C2B068",
"[$	c #C7AD6D",
"}$	c #F9D86B",
"|$	c #AC8A1A",
"1$	c #656565",
"2$	c #B9B9B9",
"3$	c #D5B863",
"4$	c #FCD179",
"5$	c #FFF6D6",
"6$	c #FFE27C",
"7$	c #F8DF88",
"8$	c #F8DC7B",
"9$	c #FCDE74",
"0$	c #EFCC56",
"a$	c #E2BA37",
"b$	c #D6A718",
"c$	c #B1870C",
"d$	c #776838",
"e$	c #898989",
"f$	c #DBDBDB",
"g$	c #D9BF73",
"h$	c #ECBD4C",
"i$	c #FFE9A9",
"j$	c #FFDC76",
"k$	c #F9D468",
"l$	c #ECC44A",
"m$	c #D2A20F",
"n$	c #AA8311",
"o$	c #8B7125",
"p$	c #726640",
"q$	c #5F5F5F",
"r$	c #6C6C6C",
"s$	c #898888",
"t$	c #BEBEBE",
"u$	c #DAC074",
"v$	c #E2B43B",
"w$	c #FFDA7B",
"x$	c #FFD872",
"y$	c #F5CD5D",
"z$	c #E9BD41",
"A$	c #DCAD24",
"B$	c #C5970B",
"C$	c #A27F16",
"D$	c #846E2B",
"E$	c #6D6347",
"F$	c #626262",
"G$	c #6E6E6E",
"H$	c #9F9F9F",
"I$	c #D1D0D0",
"J$	c #DFDEDE",
"K$	c #DBC175",
"L$	c #E2C367",
"M$	c #FFF4DA",
"N$	c #F2C553",
"O$	c #E6B737",
"P$	c #D9A81C",
"Q$	c #BE910E",
"R$	c #997A1B",
"S$	c #7E6B32",
"T$	c #68624F",
"U$	c #8C8C8C",
"V$	c #BFBFBF",
"W$	c #D3D3D3",
"X$	c #E0E0E0",
"Y$	c #EAEAEA",
"Z$	c #F4F4F4",
"`$	c #DCB950",
" %	c #DFB94D",
".%	c #927520",
"+%	c #786939",
"@%	c #6A6350",
"#%	c #676767",
"$%	c #797979",
"%%	c #929292",
"&%	c #ADADAD",
"*%	c #D7D7D7",
"=%	c #E4D7B1",
"-%	c #B4A781",
";%	c #76736A",
">%	c #7F7F7F",
",%	c #999999",
"'%	c #B3B3B3",
")%	c #C7C7C7",
"!%	c #FEFEFF",
"~%	c #C4C4C4",
"{%	c #F8F7F7",
"]%	c #FDFDFE",
"                                                                        ",
"                                            . + @ # $ % & *             ",
"                          = - ; > ,       ' ) ! ~ { ] ^ / ( _           ",
"                        : < [ } | ) 1 = 2 3 4 { 5 6 7 ~ 8 9 0 a         ",
"                      b c d e f g h } i j k l m n o p e q r s t u       ",
"                    . v w x y o 6 z l A B C D E F 7 g ~ G F H I *       ",
"                    J K G x 7 6 p L M N O } P D Q R h q S { T I *       ",
"                    $ U G V { 8 m W ^ X Y Z } ` D  ...+.@.m #.$.=       ",
"                    $ U G q %.&.M *.=.-.s ;.>.,.N K '.).4 !.~.{.].      ",
"                    J ^.S @./.(._.:.s     <.#.[.}.|.N 1.2.3.[ 4.@ 5.    ",
"            6.7.8.9.. v +.U ).0.a.T <.    <.H b.c.d.Z e.f.g._.h.! < *   ",
"    i.j.k.l.m.n.o.p.q.a A r.s.=.t.<.s s s <.<.=.u.I v.b.w.x.y.z.&.A.B.  ",
"  C.D.E.F.G.H.I.J.K.L.q.+ 3 M.:.N.s H -.-.s H b.O.~.P.#.Q.Q.R.S.Q @.3.].",
"  T.U.V.W.W.W.W.W.X.Y.Z.) '.`. +w.t..+++@+Q.#+~.$+%+&+@+<.<.<.*+4 =+-+;+",
"6.>+,+W.W.W.W.W.W.'+)+!+|./.Q L 0.~+{+:.;.]+%+^+$+I &+.+s <.<./+`.(+-+_+",
":+<+[+W.W.W.W.W.W.W.W.{.K @.d ] W }+|+1+2+3+4+5+6+7+8+9+++H   &+0+-+-+  ",
"a+b+c+d+d+d+d+d+d+d+d+J K @.e+/. .A.f+g+h+i+j+k+l+m+n+o+q.-.<.x.p+-+    ",
"q+r+s+t+t+t+t+t+t+t+t+: 2./.....u+v+w+x+y+Q.z+A+B+C+D+E+F+G+H+u.-+-+    ",
"a+I+J+K+K+K+K+K+K+K+K+L+@ P M+N+O+P+Q+R+S+T+U+V+W+X+Y+Z+`+ @6+-+-+      ",
"a+.@+@@@@@@@@@@@@@@@#@$@%@&@*@=@-@;@>@,@,@'@)@!@~@{@]@^@/@-+-+-+        ",
"  (@_@:@:@:@<@[@}@|@1@2@3@4@5@6@7@8@9@U+0@0@a@b@c@d@e@f@g@-+h@s <.      ",
"  i@j@k@k@l@m@  n@o@p@q@r@s@t@u@v@w@x@a@y@z@A@B@C@D@E@F@G@              ",
"  H@I@J@J@K@L@M@N@O@P@Q@R@S@T@U@V@W@X@Y@Z@`@ #.#+#@###$#-.    %#        ",
"  &#*#=#-#m@;#W.W.>#,#B@B@ #'#)#c@!#~#{#]#^#/#(#_#:#<#[#                ",
"  }#|#1#2#3#4#5#5#6#7#8#9#0#a#b#c#c#d#e#f#g#h#i#j#k#l#Q.      <.        ",
"  m#n#-#o#p#q#q#q#r#s#t#u#v#w#x#y#z#A#B#B#C#D#E#F#G#H#%#%#  %#<.        ",
"  I#J#K#m.L#M#M#M#N#O#P#Q#R#S#T#U#V#W#W#M#X#Y#Z#`#p+ $      <.          ",
"  .$+$@$#$$$%$%$%$%$&$*$=$-$;$>$,$'$'$%$%$)$!$~$u.{$      <.            ",
"  ]$^$/$($X#X#X#X#X#X#_$:$<$[$[$[$[$X#X#X#}$|$1$2$.+    <.              ",
"  3$4$l.5$6$6$6$6$6$6$6$7$8$6$6$6$9$0$a$b$c$d$e$f$H <.<.                ",
"  g$h$n.i$j$j$j$j$j$j$j$j$k$l$[@m$n$o$p$q$r$s$t$G@                      ",
"  u$v$  w$x$x$x$x$y$z$A$B$C$D$E$F$G$I H$P.I$J$G@                        ",
"  K$L$M$k@N$O$P$Q$R$S$T$1$k#U$F+V$W$X$Y$Z$H                             ",
"  K$`$ %c$.%+%@%#%$%%%&%p+*%{$#.        <.                              ",
"  =%-%;%`#>%,%'%)%R.N.#+    !%<.                                        ",
"  Z$]+~%l#:._+G+{%s             ]%                                      ",
"                                                                        "};
