/* XPM */
static char * open_on_xpm[] = {
"49 45 729 2",
"  	c None",
". 	c #000000",
"+ 	c #101010",
"@ 	c #545454",
"# 	c #5B5B5B",
"$ 	c #595959",
"% 	c #444444",
"& 	c #181818",
"* 	c #A0A0A0",
"= 	c #E6E6E6",
"- 	c #FBFBFB",
"; 	c #F4F4F4",
"> 	c #F2F2F2",
", 	c #F2F3F3",
"' 	c #F3F3F3",
") 	c #FAFAFA",
"! 	c #CDCDCD",
"~ 	c #727272",
"{ 	c #070707",
"] 	c #A3A3A3",
"^ 	c #E8E8E8",
"/ 	c #EFEFEF",
"( 	c #CECECE",
"_ 	c #B6B7B7",
": 	c #B5B5B5",
"< 	c #B8B9B9",
"[ 	c #BBBCBC",
"} 	c #BCBDBD",
"| 	c #BDBDBD",
"1 	c #C0C0C0",
"2 	c #D5D6D6",
"3 	c #EAEAEA",
"4 	c #C9C9C9",
"5 	c #0E0E0E",
"6 	c #CFCFCF",
"7 	c #F9F9F9",
"8 	c #CBCBCB",
"9 	c #B0B1B1",
"0 	c #BFC0C0",
"a 	c #C5C6C6",
"b 	c #C9CACA",
"c 	c #CCCDCD",
"d 	c #CDCECE",
"e 	c #CBCCCC",
"f 	c #C7C8C8",
"g 	c #F1F1F1",
"h 	c #C2C2C2",
"i 	c #040404",
"j 	c #F5F5F5",
"k 	c #B7B9B9",
"l 	c #B4B5B5",
"m 	c #BDBFBF",
"n 	c #CBCECE",
"o 	c #D0D2D2",
"p 	c #D3D5D5",
"q 	c #D5D7D7",
"r 	c #D6D8D8",
"s 	c #C5C5D5",
"t 	c #65656D",
"u 	c #41383C",
"v 	c #563F43",
"w 	c #4A4449",
"x 	c #75757E",
"y 	c #8A8A95",
"z 	c #C8C8D7",
"A 	c #D6D9D9",
"B 	c #D7D9D9",
"C 	c #D8D9D9",
"D 	c #D6D7D7",
"E 	c #D1D2D2",
"F 	c #BCBCBC",
"G 	c #D7D7D7",
"H 	c #999999",
"I 	c #BABBBB",
"J 	c #B5B7B7",
"K 	c #BFC1C1",
"L 	c #C9CBCB",
"M 	c #CFD2D2",
"N 	c #D3D6D6",
"O 	c #D9DCDC",
"P 	c #DADDDD",
"Q 	c #DBDBEC",
"R 	c #B9B9C7",
"S 	c #9A9AA6",
"T 	c #AEAEBB",
"U 	c #D5D5E5",
"V 	c #A5A5B2",
"W 	c #432C2D",
"X 	c #C36565",
"Y 	c #F78B8B",
"Z 	c #F69191",
"` 	c #E98282",
" .	c #BC7373",
"..	c #C2BCBC",
"+.	c #82828B",
"@.	c #DDE0E0",
"#.	c #DFE1E1",
"$.	c #E0E2E2",
"%.	c #DEDFDF",
"&.	c #D9D9D9",
"*.	c #9C9C9C",
"=.	c #121212",
"-.	c #E4E4E4",
";.	c #CECFCF",
">.	c #B3B4B4",
",.	c #C0C1C1",
"'.	c #CACCCC",
").	c #D1D3D3",
"!.	c #D4D7D7",
"~.	c #D7DADA",
"{.	c #D8DBDB",
"].	c #A2A2AF",
"^.	c #3C2F32",
"/.	c #713A3A",
"(.	c #824444",
"_.	c #7D4040",
":.	c #7D7D87",
"<.	c #B5B5C3",
"[.	c #442526",
"}.	c #E17575",
"|.	c #FAC0C0",
"1.	c #FCDBDB",
"2.	c #FAB5B5",
"3.	c #F39C9C",
"4.	c #FDFBFB",
"5.	c #AEAAAA",
"6.	c #83838D",
"7.	c #DBDEDE",
"8.	c #DEE0E0",
"9.	c #E1E3E3",
"0.	c #E4E5E5",
"a.	c #E6E7E7",
"b.	c #E3E4E4",
"c.	c #DBDBDB",
"d.	c #878787",
"e.	c #888888",
"f.	c #B1B2B2",
"g.	c #BEBFBF",
"h.	c #C8CACA",
"i.	c #91919D",
"j.	c #613232",
"k.	c #EE7D7D",
"l.	c #F89494",
"m.	c #F9ADAD",
"n.	c #F9A5A5",
"o.	c #F28585",
"p.	c #5A5A5E",
"q.	c #4E4C51",
"r.	c #A55656",
"s.	c #DA7373",
"t.	c #EC9494",
"u.	c #FBD1D1",
"v.	c #FBF4F4",
"w.	c #FACBCB",
"x.	c #F67F7F",
"y.	c #F4C9C9",
"z.	c #FDFDFD",
"A.	c #5D5D5F",
"B.	c #D7D7E8",
"C.	c #E3E5E5",
"D.	c #E9EAEA",
"E.	c #7C7C7C",
"F.	c #EBEBEB",
"G.	c #DCDCDC",
"H.	c #D5D5D5",
"I.	c #B7B8B8",
"J.	c #CFD1D1",
"K.	c #D5D8D8",
"L.	c #4F2D2D",
"M.	c #F47D7D",
"N.	c #F78D8D",
"O.	c #FABBBB",
"P.	c #F59E9E",
"Q.	c #572D2D",
"R.	c #241516",
"S.	c #AB5858",
"T.	c #CA6969",
"U.	c #E68585",
"V.	c #F3A4A4",
"W.	c #F88080",
"X.	c #FCFCFC",
"Y.	c #858585",
"Z.	c #DCDFDF",
"`.	c #E2E4E4",
" +	c #E7E9E9",
".+	c #EAEBEB",
"++	c #CACBCB",
"@+	c #8E8E8E",
"#+	c #FFFFFF",
"$+	c #020202",
"%+	c #F6F6F6",
"&+	c #BEBEBE",
"*+	c #BFBFBF",
"=+	c #CBCDCD",
"-+	c #6E6E76",
";+	c #BA5F5F",
">+	c #E99797",
",+	c #D26E6E",
"'+	c #A15353",
")+	c #332929",
"!+	c #B45C5C",
"~+	c #E67D7D",
"{+	c #EB8585",
"]+	c #F77F7F",
"^+	c #DFE2E2",
"/+	c #E5E7E7",
"(+	c #EBECEC",
"_+	c #EEEFEF",
":+	c #2F2F2F",
"<+	c #FEFEFE",
"[+	c #1B1B1B",
"}+	c #B4B4B4",
"|+	c #C3C5C5",
"1+	c #EA7979",
"2+	c #F68181",
"3+	c #D37474",
"4+	c #B7ABAB",
"5+	c #AEAEAE",
"6+	c #6A5454",
"7+	c #A25454",
"8+	c #DD7373",
"9+	c #E77777",
"0+	c #F07B7B",
"a+	c #F57E7E",
"b+	c #ECECEC",
"c+	c #5A5A5B",
"d+	c #DEE1E1",
"e+	c #EBEDED",
"f+	c #EFF0F0",
"g+	c #EEEEEE",
"h+	c #454545",
"i+	c #C8C9C9",
"j+	c #D2D5D5",
"k+	c #F27E7E",
"l+	c #E97D7D",
"m+	c #AB6F6F",
"n+	c #D6D2D2",
"o+	c #DFDFDF",
"p+	c #715D5D",
"q+	c #773D3D",
"r+	c #CE6B6B",
"s+	c #E07373",
"t+	c #BF8E8E",
"u+	c #69696A",
"v+	c #6B6B74",
"w+	c #D9D9EA",
"x+	c #E4E7E7",
"y+	c #F0F1F1",
"z+	c #515151",
"A+	c #B9BABA",
"B+	c #C16363",
"C+	c #ED7A7A",
"D+	c #D06B6B",
"E+	c #B27979",
"F+	c #766A6A",
"G+	c #814E4E",
"H+	c #974E4E",
"I+	c #9E5151",
"J+	c #793E3E",
"K+	c #4C3334",
"L+	c #5C2F2F",
"M+	c #C3C3D2",
"N+	c #F1F2F2",
"O+	c #F7F1DE",
"P+	c #EEE1BB",
"Q+	c #EBDEB8",
"R+	c #F3F0E7",
"S+	c #BD8585",
"T+	c #D1D1D1",
"U+	c #B1B1B1",
"V+	c #989898",
"W+	c #938282",
"X+	c #5F4D4D",
"Y+	c #625D5D",
"Z+	c #784D4D",
"`+	c #D77E7E",
" @	c #DDBD5E",
".@	c #DFC579",
"+@	c #DAB74D",
"@@	c #E2C670",
"#@	c #E6CC80",
"$@	c #EFDFAF",
"%@	c #F2E6BF",
"&@	c #CCAA40",
"*@	c #DADADA",
"=@	c #D56E6E",
"-@	c #CD7C7C",
";@	c #E9E9E9",
">@	c #919191",
",@	c #7E7E7E",
"'@	c #A3A2A2",
")@	c #B39696",
"!@	c #DE9797",
"~@	c #BE6262",
"{@	c #5E5E64",
"]@	c #F0E3BD",
"^@	c #E6CB7B",
"/@	c #FFFDEC",
"(@	c #FFFDE1",
"_@	c #FFFECA",
":@	c #FFFEC3",
"<@	c #FFFFB1",
"[@	c #FFFED5",
"}@	c #F2E4B9",
"|@	c #A7945B",
"1@	c #B39D9D",
"2@	c #E5E5E5",
"3@	c #6D6D6D",
"4@	c #BABABA",
"5@	c #B87F7F",
"6@	c #D8B54C",
"7@	c #FCF4E3",
"8@	c #FFFFA4",
"9@	c #FFFF99",
"0@	c #FFFBE2",
"a@	c #DEC67F",
"b@	c #D2D2E2",
"c@	c #CC7474",
"d@	c #CDB2B2",
"e@	c #F7F7F7",
"f@	c #767676",
"g@	c #C4B0B0",
"h@	c #F28181",
"i@	c #6A4D4D",
"j@	c #B0B0BB",
"k@	c #E6C975",
"l@	c #FFFBCC",
"m@	c #FFFEA3",
"n@	c #FFFBD7",
"o@	c #8F8F9A",
"p@	c #A99797",
"q@	c #434343",
"r@	c #DEDBDB",
"s@	c #E5CECE",
"t@	c #C5C7C7",
"u@	c #EADAAA",
"v@	c #F2DEAA",
"w@	c #FFFDAC",
"x@	c #A95757",
"y@	c #7B4343",
"z@	c #6D5555",
"A@	c #545456",
"B@	c #383838",
"C@	c #464647",
"D@	c #4E4E4E",
"E@	c #828282",
"F@	c #EADEBD",
"G@	c #EFEAD9",
"H@	c #C9C5C5",
"I@	c #EADDB7",
"J@	c #F2DDA6",
"K@	c #FFFAA8",
"L@	c #FFFC96",
"M@	c #F37D7D",
"N@	c #8E4949",
"O@	c #654444",
"P@	c #DDCA5F",
"Q@	c #C69F1C",
"R@	c #A98A2C",
"S@	c #C4AA5D",
"T@	c #D2B96D",
"U@	c #DAC37F",
"V@	c #ECE1BF",
"W@	c #CBAA45",
"X@	c #C7C7C7",
"Y@	c #E9DCB6",
"Z@	c #F2DBA0",
"`@	c #FFF4A1",
" #	c #FFF58F",
".#	c #E4C066",
"+#	c #D9B460",
"@#	c #DDC480",
"##	c #E9DBB0",
"$#	c #EFE4C1",
"%#	c #F8F8F8",
"&#	c #F0F0EF",
"*#	c #EDEDEB",
"=#	c #EDEDEA",
"-#	c #F1EFE3",
";#	c #AC8F3B",
">#	c #A6A6A6",
",#	c #939393",
"'#	c #E9C974",
")#	c #FFEC97",
"!#	c #FFEB85",
"~#	c #DCDCED",
"{#	c #DFBA68",
"]#	c #F8EDED",
"^#	c #F5EDE5",
"/#	c #F5F4EA",
"(#	c #FBFBEB",
"_#	c #FEFEE8",
":#	c #FFFFE8",
"<#	c #FFFFEF",
"[#	c #FEFED6",
"}#	c #FAFAC4",
"|#	c #EAEAAA",
"1#	c #EBEB9C",
"2#	c #DBC686",
"3#	c #65604F",
"4#	c #989797",
"5#	c #4C4545",
"6#	c #E6C364",
"7#	c #FFE795",
"8#	c #FFE47E",
"9#	c #F5D667",
"0#	c #EFCD57",
"a#	c #E0BD4E",
"b#	c #CAAF5D",
"c#	c #EBE5E3",
"d#	c #EEE6C7",
"e#	c #EFEFCC",
"f#	c #F2F2D0",
"g#	c #FDFDDB",
"h#	c #FEFEDD",
"i#	c #FFFFDF",
"j#	c #FEFED5",
"k#	c #FDFDCC",
"l#	c #DFDFA4",
"m#	c #DADA96",
"n#	c #A88C3D",
"o#	c #686363",
"p#	c #BAB4B4",
"q#	c #E6C160",
"r#	c #FFE29A",
"s#	c #FFDA74",
"t#	c #ECC34A",
"u#	c #DFB32D",
"v#	c #E6C45E",
"w#	c #DFBF60",
"x#	c #E4CD8B",
"y#	c #E1D7B5",
"z#	c #E5DFCF",
"A#	c #E9E9E6",
"B#	c #DBDBB4",
"C#	c #DADAAF",
"D#	c #E6E6BE",
"E#	c #EDEDC6",
"F#	c #FCFCD4",
"G#	c #FEFED7",
"H#	c #FEFECF",
"I#	c #FFFFC5",
"J#	c #E5E5A5",
"K#	c #C8B787",
"L#	c #715D3D",
"M#	c #898787",
"N#	c #D1CDCD",
"O#	c #D6CFCF",
"P#	c #E6C15D",
"Q#	c #FFDE93",
"R#	c #FFD36D",
"S#	c #E6B637",
"T#	c #E9D28F",
"U#	c #FFFFF0",
"V#	c #FAFAE6",
"W#	c #EAEAC6",
"X#	c #F6F6C9",
"Y#	c #F8F8CA",
"Z#	c #F7F7C3",
"`#	c #EAEABA",
" $	c #D6D6A6",
".$	c #E1E1B1",
"+$	c #E5E5B6",
"@$	c #F8F8C8",
"#$	c #FDFDCD",
"$$	c #FEFECE",
"%$	c #FEFEC5",
"&$	c #FFFFBF",
"*$	c #DDD595",
"=$	c #A2823A",
"-$	c #635858",
";$	c #B2B2B2",
">$	c #F0F0F0",
",$	c #E6BF59",
"'$	c #FFD88C",
")$	c #FFCC66",
"!$	c #E2BF5C",
"~$	c #FFFFF3",
"{$	c #FFFFAD",
"]$	c #FFFFA3",
"^$	c #E4E4A2",
"/$	c #E9E9A6",
"($	c #FDFDBE",
"_$	c #FEFEC3",
":$	c #FEFEC4",
"<$	c #F9F9BF",
"[$	c #E2E2A8",
"}$	c #ECECB2",
"|$	c #DBDBA1",
"1$	c #EBEBB1",
"2$	c #FBFBC1",
"3$	c #FCFCC2",
"4$	c #FDFDC3",
"5$	c #FEFEBE",
"6$	c #F6F3B3",
"7$	c #C0AD7C",
"8$	c #755D3A",
"9$	c #7D7D7D",
"0$	c #D6D6D6",
"a$	c #D9DBDB",
"b$	c #D9AC2B",
"c$	c #FDD685",
"d$	c #FBC85F",
"e$	c #F2BF4D",
"f$	c #FFFFD2",
"g$	c #C7C788",
"h$	c #FFFFBE",
"i$	c #F9F9B9",
"j$	c #ECECAC",
"k$	c #E1E1A1",
"l$	c #D2D292",
"m$	c #E2E2A2",
"n$	c #F4F4B4",
"o$	c #F6F6B6",
"p$	c #E3E0A0",
"q$	c #C3B775",
"r$	c #BD9740",
"s$	c #625D54",
"t$	c #A9A9A9",
"u$	c #D9AE34",
"v$	c #FDD88B",
"w$	c #F7C456",
"x$	c #E4B130",
"y$	c #F9F2DF",
"z$	c #FFFBA8",
"A$	c #FFFA94",
"B$	c #C6C284",
"C$	c #FFFCBC",
"D$	c #FFFBBB",
"E$	c #FEFBBB",
"F$	c #FEFABA",
"G$	c #F9F6B6",
"H$	c #F1EEAE",
"I$	c #E8E5A5",
"J$	c #DDD999",
"K$	c #CFC989",
"L$	c #C7BA7A",
"M$	c #BBAE6C",
"N$	c #B4AB68",
"O$	c #DAD18F",
"P$	c #886F23",
"Q$	c #747474",
"R$	c #DBB95C",
"S$	c #FCD789",
"T$	c #DDB33E",
"U$	c #FFFEF1",
"V$	c #FFF690",
"W$	c #CFC98D",
"X$	c #EEE8A8",
"Y$	c #FFF9B9",
"Z$	c #FEF8B8",
"`$	c #FBF6B6",
" %	c #F8F2B2",
".%	c #EFEAAA",
"+%	c #E8E3A3",
"@%	c #E8E0A0",
"#%	c #E1C988",
"$%	c #C7B777",
"%%	c #F3DB80",
"&%	c #F8EC93",
"*%	c #DEBF42",
"=%	c #635D4A",
"-%	c #9D9D9D",
";%	c #DDBB5D",
">%	c #FBD380",
",%	c #EAB73B",
"'%	c #FFF9D3",
")%	c #FFF08A",
"!%	c #EEE5AB",
"~%	c #C3B97A",
"{%	c #FAF0B0",
"]%	c #FDF4B4",
"^%	c #FBF1B1",
"/%	c #F4EAAA",
"(%	c #E3DA9A",
"_%	c #E3CF8E",
":%	c #ECCB88",
"<%	c #C7B373",
"[%	c #FFE680",
"}%	c #FCF99D",
"|%	c #9C7F24",
"1%	c #6B6B6B",
"2%	c #C5C5C5",
"3%	c #D7B349",
"4%	c #F9D179",
"5%	c #DEAB24",
"6%	c #F5ECCF",
"7%	c #FFF2AC",
"8%	c #FFEC86",
"9%	c #E1D59A",
"0%	c #C0B476",
"a%	c #DFD393",
"b%	c #E8DC9C",
"c%	c #E2D593",
"d%	c #DCC07D",
"e%	c #F0C77D",
"f%	c #C7B171",
"g%	c #FFE37D",
"h%	c #E6CC4F",
"i%	c #6F623C",
"j%	c #E2E2E2",
"k%	c #D0AA38",
"l%	c #FAD077",
"m%	c #DAAE30",
"n%	c #FFFDF7",
"o%	c #F1E2A6",
"p%	c #DCCC8D",
"q%	c #C2B068",
"r%	c #C7AD6D",
"s%	c #F9D86B",
"t%	c #AC8A1A",
"u%	c #656565",
"v%	c #B9B9B9",
"w%	c #D5B863",
"x%	c #FCD179",
"y%	c #FFF6D6",
"z%	c #FFE27C",
"A%	c #F8DF88",
"B%	c #F8DC7B",
"C%	c #FCDE74",
"D%	c #EFCC56",
"E%	c #E2BA37",
"F%	c #D6A718",
"G%	c #B1870C",
"H%	c #776838",
"I%	c #898989",
"J%	c #494949",
"K%	c #DBDDDD",
"L%	c #D9BF73",
"M%	c #ECBD4C",
"N%	c #FFE9A9",
"O%	c #FFDC76",
"P%	c #F9D468",
"Q%	c #ECC44A",
"R%	c #D2A20F",
"S%	c #AA8311",
"T%	c #8B7125",
"U%	c #726640",
"V%	c #5F5F5F",
"W%	c #6C6C6C",
"X%	c #898888",
"Y%	c #F3F4F4",
"Z%	c #0B0B0B",
"`%	c #252525",
" &	c #DCDEDE",
".&	c #DAC074",
"+&	c #E2B43B",
"@&	c #FFDA7B",
"#&	c #FFD872",
"$&	c #F5CD5D",
"%&	c #E9BD41",
"&&	c #DCAD24",
"*&	c #C5970B",
"=&	c #A27F16",
"-&	c #846E2B",
";&	c #6D6347",
">&	c #626262",
",&	c #6E6E6E",
"'&	c #9F9F9F",
")&	c #E6E8E8",
"!&	c #ECEEEE",
"~&	c #DBC175",
"{&	c #E2C367",
"]&	c #FFF4DA",
"^&	c #F2C553",
"/&	c #E6B737",
"(&	c #D9A81C",
"_&	c #BE910E",
":&	c #997A1B",
"<&	c #7E6B32",
"[&	c #68624F",
"}&	c #8C8C8C",
"|&	c #D3D3D3",
"1&	c #E0E0E0",
"2&	c #E2E5E5",
"3&	c #E8EAEA",
"4&	c #F4F5F5",
"5&	c #E3E3E3",
"6&	c #DCB950",
"7&	c #DFB94D",
"8&	c #927520",
"9&	c #786939",
"0&	c #6A6350",
"a&	c #676767",
"b&	c #797979",
"c&	c #929292",
"d&	c #ADADAD",
"e&	c #F0F2F2",
"f&	c #585858",
"g&	c #909090",
"h&	c #E1E1E1",
"i&	c #D7D8D8",
"j&	c #E0E1E1",
"k&	c #E4D7B1",
"l&	c #B4A781",
"m&	c #76736A",
"n&	c #7F7F7F",
"o&	c #B3B3B3",
"p&	c #EEF0F0",
"q&	c #060606",
"r&	c #D3D4D4",
"s&	c #DFE0E0",
"t&	c #E4E6E6",
"u&	c #E1E4E4",
"v&	c #EAECEC",
"w&	c #F5F6F6",
"x&	c #484949",
"y&	c #B6B6B6",
"z&	c #DBDCDC",
"A&	c #E5E6E6",
"B&	c #E8E9E9",
"C&	c #E9EBEB",
"D&	c #ECEDED",
"E&	c #CACACA",
"F&	c #EDEFEF",
"G&	c #EFF1F1",
"H&	c #AFAFAF",
"I&	c #E2E3E3",
"J&	c #EDEEEE",
"K&	c #C8C8C8",
"L&	c #292929",
"M&	c #6A6A6A",
"N&	c #A3A4A4",
"O&	c #C1C1C1",
"P&	c #AAABAB",
"Q&	c #232323",
"R&	c #6F6F6F",
"S&	c #5A5A5A",
"T&	c #8A8A8A",
"                . + @ # # # # # # # # # # # # # # # # # # # # # # # # # # # $ %                   ",
"            & * = - ; > , ' ' ' ' ' ' ' ' ' ' ' ' ' ' ' ' ' ' ' ' ' ' ' ' ' ' ' ) ! ~             ",
"        { ] ^ / ( _ : < [ } } } } } } } } } } } } } } } } } } } } } } } } } } | 1 2 3 4           ",
"      5 6 7 8 9 < 0 a b c ! ! ! ! ! ! ! ! ! ! ! ! ! ! ! ! ! ! ! ! ! ! ! ! ! ! d c e f ( g h       ",
"    i 8 j k l m a n o p q r r r r r r r r r r r r r r r r s t u v w x y z r A B C C D E F ^ G     ",
"    H - I J K L M N A O P P P P P P P P Q R S T U P P P V W X Y Z `  ...~ +.P @.#.#.$.%.&.*.7     ",
"  =.-.;.>.,.'.).!.A ~.{.O O O O O O O ].^./.(._.W :.Q <.[.}.Z |.1.2.Y 3.4.5.6.7.8.9.0.a.b.c.d./   ",
"  e.> f.g.h.).!.~.{.O O O O O O O O i.j.k.l.m.n.o.(.p.q.r.s.t.u.v.w.l.x.y.z.A.B.P #.C.D.D.a.E.F.  ",
". G.H.I.a J.K.A O O O O O O O O O s L.M.N.O.v.1.P.s.Q.R.S.T.U.V.2.n.Y W.V.X.Y.z O Z.`. +.+.+++@+#+",
"$+%+&+*+=+N A {.O O O O O O O O O -+;+W.N.2.1.w.>+,+'+)+(.!+T.~+{+o.x.]+Z 7 Y.z O O ^+/+(+_+.+:+<+",
"[+z.}+|+o K.~.O O O O O O O O O O w 1+W.2+Z 3.t.3+ .4+5+6+(.7+T.8+9+0+a+t.b+c+Q O O d+/+e+f+g+=.<+",
"h+%+I.i+j+{.{.O O O O O O O O O O w 1+W.x.k+l+,+m+n+- z.o+p+q+'+;+r+s+}.t+u+v+w+O O d+x+(+y+y+& ) ",
"z+; A+e K.O O O O O O O O O O O O -+B+]+a+C+D+E+G.z.#+#+<+b+F+G+H+'+I+J+K+/.L+u M+O d+x+(+N+N+& 7 ",
"z+; [ c K.P O O O O O O O O+P+Q+R+s L.0+1+s+S+T+7 <+#+#+<+X.U+V+W+6+X+Y+Z+E+`+X ^.z d+x+(+N+, & 7 ",
"z+; [ ! A P O O O  @.@+@@@#@$@%@&@*@6.Q.=@-@n+;@<+z.z.z.<+<+n+>@Y.,@U+8 '@)@!@l+~@{@d+x+(+N+, & 7 ",
"z+; } ! A P O O ]@^@/@(@_@:@<@[@}@|@*@t [.1@G.2@z.X.- - z.X.U+3@u+4@b+) ) &.5@~+a+K+w+x+(+N+, & 7 ",
"z+; } ! A P O O 6@7@8@9@9@9@9@9@0@a@b@W r+c@d@8 ;@' j e@) / u+z+f@6 e@<+<+<+g@}.h@i@j@x+(+N+, & 7 ",
"z+; } ! A P O O+k@l@9@9@9@9@9@9@m@n@o@H+C+~+>+S+p@4 G.o+H.f@q@z+Y.6 ' z.<+<+r@c@s@i@t@x+(+N+, & 7 ",
"z+; } ! A P O u@v@w@9@9@9@9@9@9@9@9@v+;+a+k.` 3+x@y@z@A@B@& C@D@E@F@G@j X.#+6 H@i@i@d+x+(+N+, & 7 ",
"z+; } ! A P O I@J@K@L@L@L@L@L@L@L@L@-+;+a+M@C+8+~@N@O@P@Q@R@S@T@U@V@W@*@- <+'@X@i@O d+x+(+N+, & 7 ",
"z+; } ! A P O Y@Z@`@ # # # # # # # #].J+C+9+9+.#+#@###$#) %#&#*#=#-#;#>#g : ,#i@i@O d+x+(+N+, & 7 ",
"z+; } ! A P O I@'#)#!#!#!#!#!#!#!#!#~#u !+{#]#^#/#(#_#:#<#[#}#|#1#2#3#4#5#z+i@i@O O d+x+(+N+, & 7 ",
"z+; } ! A P O I@6#7#8#8#8#8#8#8#8#9#0#a#b#c#d#e#f#g#h#h#i#j#k#l#m#n#o#p#i@i@i@O O O d+x+(+N+, & 7 ",
"z+; } ! A P O O q#r#s#s#s#t#u#v#w#x#y#z#A#B#C#D#E#F#[#G#G#H#I#J#K#L#M#N#i@O#~.{.O O d+x+(+N+, & 7 ",
"z+; } ! A P O O P#Q#R#R#S#T##+U#V#W#X#Y#Z#`# $.$+$@$H##$$$%$&$*$=$-$;$>$O O O O O O d+x+(+N+, & 7 ",
"z+; } ! A P O O ,$'$)$)$!$~${$]$^$/$($_$:$<$[$}$|$1$2$3$4$5$6$7$8$9$0$O O O a$O O O d+x+(+N+, & 7 ",
"z+; } ! A P O O b$c$d$e$T#f$9@9@g$h$&$&$5$i$j$J#k$l$m$n$o$p$q$r$s$t$O O O O O O O O d+x+(+N+, & 7 ",
"z+; } ! A P O O u$v$w$x$y$z$A$A$B$C$D$E$F$G$H$I$I$J$K$L$M$N$O$P$Q$( O O O O a$O O O d+x+(+N+, & 7 ",
"z+; } ! A P O O R$S$e$T$U$V$V$V$W$X$Y$Z$`$ %.%+%@%#%$%$%%%&%*%=%-%O O O O O {.O O O d+x+(+N+, & 7 ",
"z+; } ! A P O O ;%>%,%#@'%)%)%)%!%~%{%]%^%/%(%_%:%<%<%)%[%}%|%1%2%O O O O {.O O O O d+x+(+N+, & 7 ",
"z+; } ! A P O O 3%4%5%6%7%8%8%8%8%9%0%a%b%c%d%e%f%f%8%8%g%h%i%>@j%O O O {.O O O O O d+x+(+N+, & 7 ",
"z+; } ! A P O O k%l%m%n%[%[%[%[%[%[%o%p%q%r%r%r%r%[%[%[%s%t%u%v%O O O O O O O O O O d+x+(+N+, & 7 ",
"z+; } ! A P O O w%x%@@y%z%z%z%z%z%z%z%A%B%z%z%z%C%D%E%F%G%H%I%c.O O O O O O O O O O d+x+(+N+, & 7 ",
"J%; } d B K%O O L%M%$@N%O%O%O%O%O%O%O%O%P%Q%u#R%S%T%U%V%W%X%&+O O O O O O O O O O O #./+e+, Y%Z%- ",
"`%7 [ c B  &P O .&+&#+@&#&#&#&#&$&%&&&*&=&-&;&>&,&Y.'&4@O O O O O O O O O O O O O P $.)&!&, g+. #+",
"  z.| e C @.@.O ~&{&]&R#^&/&(&_&:&<&[&u%Q$}&>#*+|&1&3 O O O O O O O O O O O O O O @.2&3&_+4&4@  #+",
"  5&( '.C #.$. &~&6&7&G%8&9&0&a&b&c&d&2%G j%O O O O O O O O O O O O O O O O O O Z.9.)&e+e&j f&  #+",
"  g&h&4 i&j&`.9.k&l&m&1%n&H o&X@&.P P P P P P P P P P P P P P P P P P P P P 7.@.9./+.+p&; %.q&)   ",
"    7 e r&s&t&/+C.u&9.9.9.9.9.9.9.9.9.9.9.9.9.9.9.9.9.9.9.9.9.9.9.9.9.9.9.9.u&C.)&v&_+, w&x&  #+  ",
"    y&0$d z&A&B&3& + + + + + + + + + + + + + + + + + + + + + + + + + + + + + +C&D&f+Y%w&E.  #+    ",
"      E&4@r&j&B&e+D&F&F&F&F&F&F&F&F&F&F&F&F&F&F&F&F&F&F&F&F&F&F&F&F&F&F&F&F&_+G&N+4&w&W%    #+    ",
"        E&d&H&I&;@J&>$g > > ' ' ' ' ' ' ' ' ' ' ' ' ' ' ' ' ' ' ' ' ' ' ' ' , Y%4&K&L&  ; #+      ",
"          &.c.V%M&N&| *+1 O&h h h h h h h h h h h h h h h h h h h h h h h h P&~ Q&.   #+#+        ",
"              e@;@t$R&@ @ @ @ @ @ @ @ @ @ @ @ @ @ @ @ @ @ @ @ @ @ @ @ @ @ @ S&T&G.#+#+            ",
"                  #+#+#+#+#+#+#+#+#+#+#+#+#+#+#+#+#+#+#+#+#+#+#+#+#+#+#+#+#+#+#+#+                "};
