/* XPM */
static char * open_off2_xpm[] = {
"49 45 754 2",
"  	c None",
". 	c #DEDEDE",
"+ 	c #A9A9A9",
"@ 	c #878787",
"# 	c #959595",
"$ 	c #6B6B6B",
"% 	c #737373",
"& 	c #727272",
"* 	c #6E6E6E",
"= 	c #505050",
"- 	c #DCDCDC",
"; 	c #A8A8A8",
"> 	c #9C9C9C",
", 	c #CDCDCD",
"' 	c #F9F9F9",
") 	c #FEFEFE",
"! 	c #FDFDFD",
"~ 	c #FCFDFD",
"{ 	c #FCFCFC",
"] 	c #FAFAFA",
"^ 	c #D6D6D6",
"/ 	c #818181",
"( 	c #C3C3C3",
"_ 	c #8A8A8A",
": 	c #D0D0D0",
"< 	c #F8F8F8",
"[ 	c #F2F3F3",
"} 	c #F1F2F2",
"| 	c #F0F1F1",
"1 	c #EFF0F0",
"2 	c #EDEEEE",
"3 	c #EBECEC",
"4 	c #E7E8E8",
"5 	c #EAEBEB",
"6 	c #EFEFEF",
"7 	c #D2D2D2",
"8 	c #D3D3D3",
"9 	c #C6C6C6",
"0 	c #939393",
"a 	c #F7F8F8",
"b 	c #E8E9E9",
"c 	c #E3E4E4",
"d 	c #D7D8D8",
"e 	c #D5D6D6",
"f 	c #F3F3F3",
"g 	c #CCCCCC",
"h 	c #E1E1E1",
"i 	c #F2F4F4",
"j 	c #ECEEEE",
"k 	c #E9EBEB",
"l 	c #E6E8E8",
"m 	c #E4E7E7",
"n 	c #E4E6E6",
"o 	c #CBCBD8",
"p 	c #7D7E84",
"q 	c #60595D",
"r 	c #715F62",
"s 	c #686367",
"t 	c #8A8B92",
"u 	c #9B9CA5",
"v 	c #CDCEDA",
"w 	c #DCDEDE",
"x 	c #D0D1D1",
"y 	c #B9BABA",
"z 	c #EDEDED",
"A 	c #ACACAC",
"B 	c #C8C8C8",
"C 	c #F4F4F4",
"D 	c #E7E9E9",
"E 	c #E1E4E4",
"F 	c #DEE1E1",
"G 	c #DCDCEA",
"H 	c #C0C1CC",
"I 	c #A7A8B1",
"J 	c #B7B8C2",
"K 	c #D7D7E4",
"L 	c #B0B1BB",
"M 	c #614F50",
"N 	c #C87D7D",
"O 	c #F29C9C",
"P 	c #F1A0A0",
"Q 	c #E79494",
"R 	c #C38888",
"S 	c #C7C3C3",
"T 	c #94949C",
"U 	c #E3E5E5",
"V 	c #DFE1E1",
"W 	c #C7C7C7",
"X 	c #9B9B9B",
"Y 	c #E7E7E7",
"Z 	c #969696",
"` 	c #DBDEDE",
" .	c #D9DCDC",
"..	c #ADADB8",
"+.	c #5A5053",
"@.	c #855959",
"#.	c #936161",
"$.	c #8F5E5E",
"%.	c #604E4F",
"&.	c #8F8F97",
"*.	c #DBDBE9",
"=.	c #BCBCC8",
"-.	c #614849",
";.	c #DF8989",
">.	c #F09F9F",
",.	c #F4C5C5",
"'.	c #F5DBDB",
").	c #F4BCBC",
"!.	c #F19B9B",
"~.	c #EEA8A8",
"{.	c #F6F5F5",
"].	c #B6B4B4",
"^.	c #E1E3E3",
"/.	c #DFE0E0",
"(.	c #D8D9D9",
"_.	c #C9CACA",
":.	c #B8B8B8",
"<.	c #949494",
"[.	c #B4B4B4",
"}.	c #B6B6B6",
"|.	c #FDFEFE",
"1.	c #DADDDD",
"2.	c #9F9FA9",
"3.	c #785353",
"4.	c #EA8F8F",
"5.	c #F2A2A2",
"6.	c #F3B6B6",
"7.	c #F3B0B0",
"8.	c #ED9696",
"9.	c #727376",
"0.	c #69686C",
"a.	c #AF7070",
"b.	c #DA8787",
"c.	c #E8A2A2",
"d.	c #F4D3D3",
"e.	c #F4EFEF",
"f.	c #F4CECE",
"g.	c #F09191",
"h.	c #EFCDCD",
"i.	c #F6F7F7",
"j.	c #757577",
"k.	c #D7D8E6",
"l.	c #DEE0E0",
"m.	c #D9D9D9",
"n.	c #CCCDCD",
"o.	c #BABBBB",
"p.	c #909090",
"q.	c #F3F4F4",
"r.	c #E2E4E4",
"s.	c #DCDFDF",
"t.	c #C9C9D6",
"u.	c #6A4F4F",
"v.	c #EF8F8F",
"w.	c #F19C9C",
"x.	c #F4C1C1",
"y.	c #F0AAAA",
"z.	c #704F4F",
"A.	c #473B3C",
"B.	c #B47171",
"C.	c #CD7F7F",
"D.	c #E49696",
"E.	c #EEAFAF",
"F.	c #F29292",
"G.	c #F5F6F6",
"H.	c #959696",
"I.	c #CBCCD8",
"J.	c #DDDFDF",
"K.	c #BBBCBC",
"L.	c #9E9F9F",
"M.	c #9D9D9D",
"N.	c #848484",
"O.	c #F4F5F5",
"P.	c #ECEDED",
"Q.	c #E5E7E7",
"R.	c #DFE2E2",
"S.	c #83838A",
"T.	c #C07777",
"U.	c #E6A4A4",
"V.	c #D38383",
"W.	c #AC6D6D",
"X.	c #534B4B",
"Y.	c #BB7575",
"Z.	c #E48F8F",
"`.	c #E89696",
" +	c #F19191",
".+	c #D6D8D8",
"++	c #BCBDBD",
"@+	c #AEAFAF",
"#+	c #393939",
"$+	c #2D2D2D",
"%+	c #EBEDED",
"&+	c #656165",
"*+	c #E78C8C",
"=+	c #F09292",
"-+	c #D48888",
";+	c #C28787",
">+	c #BEB4B4",
",+	c #B6B7B7",
"'+	c #7F6E6E",
")+	c #AD6E6E",
"!+	c #DC8787",
"~+	c #E48A8A",
"{+	c #EC8E8E",
"]+	c #F09090",
"^+	c #727374",
"/+	c #D7D9D9",
"(+	c #CDCECE",
"_+	c #AEAEAE",
":+	c #8C8C8C",
"<+	c #5C5C5C",
"[+	c #ED9090",
"}+	c #E68F8F",
"|+	c #B48484",
"1+	c #D7D4D4",
"2+	c #857575",
"3+	c #8A5C5C",
"4+	c #D08181",
"5+	c #DF8787",
"6+	c #C49D9D",
"7+	c #7F7F80",
"8+	c #808188",
"9+	c #D9DAE7",
"0+	c #D6D9D9",
"a+	c #ADAEAE",
"b+	c #8F8F8F",
"c+	c #676767",
"d+	c #C67A7A",
"e+	c #E98D8D",
"f+	c #D28181",
"g+	c #B98C8C",
"h+	c #DBDCDC",
"i+	c #F7F7F7",
"j+	c #898080",
"k+	c #926969",
"l+	c #A46969",
"m+	c #A96C6C",
"n+	c #8B5C5C",
"o+	c #675354",
"p+	c #745050",
"q+	c #5E585B",
"r+	c #C7C8D4",
"s+	c #F1EDDE",
"t+	c #EAE0C1",
"u+	c #E8DEBF",
"v+	c #EEECE5",
"w+	c #C29696",
"x+	c #B9B9B9",
"y+	c #A4A5A5",
"z+	c #A09393",
"A+	c #766868",
"B+	c #797575",
"C+	c #8B6868",
"D+	c #D79090",
"E+	c #C77C7C",
"F+	c #DCC376",
"G+	c #DEC98C",
"H+	c #DABE68",
"I+	c #E0CA85",
"J+	c #E4CF92",
"K+	c #EBDEB8",
"L+	c #EDE4C5",
"M+	c #CEB45E",
"N+	c #DADADA",
"O+	c #D68383",
"P+	c #CF8E8E",
"Q+	c #E6E7E7",
"R+	c #9F9F9F",
"S+	c #8F9090",
"T+	c #CECECE",
"U+	c #ADADAD",
"V+	c #BAA3A3",
"W+	c #DDA4A4",
"X+	c #C37979",
"Y+	c #76767B",
"Z+	c #ECE2C3",
"`+	c #E4CE8E",
" @	c #F8F7E9",
".@	c #F8F7E0",
"+@	c #F8F7CD",
"@@	c #F8F7C8",
"#@	c #F8F8B9",
"$@	c #F8F7D6",
"%@	c #EDE2C0",
"&@	c #B1A274",
"*@	c #7B7C82",
"=@	c #BAA9A9",
"-@	c #E3E3E3",
";@	c #828282",
">@	c #C0C1C1",
",@	c #D9DADA",
"'@	c #BE9191",
")@	c #D8BC68",
"!@	c #F5EFE2",
"~@	c #F8F8AF",
"{@	c #F8F8A6",
"]@	c #F8F5E1",
"^@	c #DDCA91",
"/@	c #D3D4E1",
"(@	c #CE8888",
"_@	c #CFBABA",
":@	c #EEEFEF",
"<@	c #F0F0F0",
"[@	c #EBEBEB",
"}@	c #6B6C6C",
"|@	c #898A8A",
"1@	c #D1D1D1",
"2@	c #C8B8B8",
"3@	c #ED9292",
"4@	c #7F6868",
"5@	c #B8B9C2",
"6@	c #E4CD89",
"7@	c #F8F5CF",
"8@	c #F8F7AE",
"9@	c #F8F5D8",
"0@	c #9D9EA7",
"a@	c #B2A4A4",
"b@	c #606060",
"c@	c #DDDBDB",
"d@	c #E3D1D1",
"e@	c #C7CACA",
"f@	c #E7DAB4",
"g@	c #EDDEB4",
"h@	c #F8F7B5",
"i@	c #E69393",
"j@	c #B27171",
"k@	c #8D6060",
"l@	c #826F6F",
"m@	c #6E6E70",
"n@	c #575858",
"o@	c #3D3E3E",
"p@	c #626364",
"q@	c #696969",
"r@	c #E7DEC3",
"s@	c #EBE7DA",
"t@	c #CCCACA",
"u@	c #E7DDBE",
"v@	c #EDDDB0",
"w@	c #F8F4B2",
"x@	c #F8F6A3",
"y@	c #EE8F8F",
"z@	c #9C6565",
"A@	c #7B6161",
"B@	c #DCCD77",
"C@	c #CAAB41",
"D@	c #B29A4E",
"E@	c #C8B475",
"F@	c #D3C082",
"G@	c #DAC891",
"H@	c #E8E0C5",
"I@	c #CEB462",
"J@	c #CACBCB",
"K@	c #E6DCBD",
"L@	c #EDDBAC",
"M@	c #F8EFAC",
"N@	c #F8F09E",
"O@	c #E2C57D",
"P@	c #D9BC78",
"Q@	c #DCC992",
"R@	c #E6DBB8",
"S@	c #EBE2C6",
"T@	c #ECECEB",
"U@	c #E9EAE8",
"V@	c #E9EAE7",
"W@	c #ECEBE2",
"X@	c #B59E5A",
"Y@	c #B0B0B0",
"Z@	c #BCBCBC",
"`@	c #A1A1A1",
" #	c #E6CD88",
".#	c #F8E9A4",
"+#	c #F8E896",
"@#	c #DBDCEA",
"##	c #DEC17E",
"$#	c #F2EAEA",
"%#	c #F0EAE3",
"&#	c #F0EFE7",
"*#	c #F4F5E8",
"=#	c #F7F7E6",
"-#	c #F8F8E6",
";#	c #F8F8EB",
">#	c #F7F7D7",
",#	c #F4F4C9",
"'#	c #E7E7B4",
")#	c #E8E8A8",
"!#	c #DBCA97",
"~#	c #7B786A",
"{#	c #A4A4A4",
"]#	c #676262",
"^#	c #6C6D6D",
"/#	c #E4C87B",
"(#	c #F8E5A3",
"_#	c #F8E290",
":#	c #F0D77D",
"<#	c #EBD071",
"[#	c #DFC369",
"}#	c #CDB875",
"|#	c #E8E3E2",
"1#	c #EAE4CB",
"2#	c #EBEBCF",
"3#	c #EDEED2",
"4#	c #F6F7DB",
"5#	c #F7F7DD",
"6#	c #F8F8DE",
"7#	c #F7F7D6",
"8#	c #F6F7CF",
"9#	c #DEDEAF",
"0#	c #DADAA3",
"a#	c #B19B5C",
"b#	c #7E7A7A",
"c#	c #C0BCBC",
"d#	c #E4C678",
"e#	c #F8E1A7",
"f#	c #F8DA88",
"g#	c #E8C866",
"h#	c #DEBB4F",
"i#	c #E4C976",
"j#	c #DEC578",
"k#	c #E2D09B",
"l#	c #DFD8BC",
"m#	c #E3DED1",
"n#	c #E6E7E4",
"o#	c #DBDBBC",
"p#	c #DADAB8",
"q#	c #E4E4C4",
"r#	c #E9EACA",
"s#	c #F5F6D6",
"t#	c #F7F7D8",
"u#	c #F7F7D1",
"v#	c #F8F8C9",
"w#	c #E3E3B0",
"x#	c #CBBE97",
"y#	c #85755C",
"z#	c #989797",
"A#	c #D3D0D0",
"B#	c #D7D3D3",
"C#	c #D8DBDB",
"D#	c #E4C675",
"E#	c #F8DEA1",
"F#	c #F8D582",
"G#	c #E4BD57",
"H#	c #E6D49E",
"I#	c #F8F8EC",
"J#	c #F4F4E4",
"K#	c #E7E7CA",
"L#	c #F0F1CD",
"M#	c #F2F3CD",
"N#	c #F1F2C8",
"O#	c #E7E7C1",
"P#	c #D7D7B0",
"Q#	c #DFE0B9",
"R#	c #E3E3BD",
"S#	c #F2F3CC",
"T#	c #F6F7D0",
"U#	c #F7F7C9",
"V#	c #F8F8C5",
"W#	c #DCD6A3",
"X#	c #AD9359",
"Y#	c #7A7171",
"Z#	c #ECECEC",
"`#	c #E4C572",
" $	c #F8D99B",
".$	c #F8CF7D",
"+$	c #E0C575",
"@$	c #F8F8EF",
"#$	c #F8F8B6",
"$$	c #F8F8AE",
"%$	c #E2E2AD",
"&$	c #E6E7B0",
"*$	c #F6F7C4",
"=$	c #F7F7C8",
"-$	c #F3F3C5",
";$	c #E0E1B2",
">$	c #E8E9BA",
",$	c #DBDBAC",
"'$	c #E8E8B9",
")$	c #F4F5C6",
"!$	c #F5F6C7",
"~$	c #F6F7C8",
"{$	c #F7F7C4",
"]$	c #F0EFBB",
"^$	c #C5B68E",
"/$	c #887559",
"($	c #D7D7D7",
"_$	c #D9DBDB",
":$	c #D9B54D",
"<$	c #F6D796",
"[$	c #F4CC77",
"}$	c #EDC568",
"|$	c #F8F8D4",
"1$	c #CACB98",
"2$	c #F8F8C4",
"3$	c #F3F3C0",
"4$	c #E8E9B5",
"5$	c #DFE0AC",
"6$	c #D3D4A0",
"7$	c #E0E1AD",
"8$	c #EFEFBC",
"9$	c #F0F1BD",
"0$	c #E1DFAC",
"a$	c #C7BE89",
"b$	c #C2A45E",
"c$	c #79756E",
"d$	c #B2B3B3",
"e$	c #D9B754",
"f$	c #F6D99B",
"g$	c #F1C970",
"h$	c #E2B951",
"i$	c #F3EEDE",
"j$	c #F8F5B2",
"k$	c #F8F4A2",
"l$	c #CAC795",
"m$	c #F8F6C2",
"n$	c #F8F5C1",
"o$	c #F7F5C1",
"p$	c #F7F4C1",
"q$	c #F3F1BD",
"r$	c #ECEBB7",
"s$	c #E5E3B0",
"t$	c #DCDAA6",
"u$	c #D1CD99",
"v$	c #CAC18D",
"w$	c #C1B782",
"x$	c #BBB47E",
"y$	c #DAD39E",
"z$	c #988447",
"A$	c #878888",
"B$	c #DBC075",
"C$	c #F5D899",
"D$	c #DCBB5C",
"E$	c #F8F7ED",
"F$	c #F8F19F",
"G$	c #D1CD9C",
"H$	c #EAE6B2",
"I$	c #F8F3C0",
"J$	c #F7F3BF",
"K$	c #F4F1BD",
"L$	c #F2EEBA",
"M$	c #EBE7B4",
"N$	c #E5E2AE",
"O$	c #E5DFAC",
"P$	c #DFCD98",
"Q$	c #CABE8A",
"R$	c #EEDB92",
"S$	c #F2E9A1",
"T$	c #DDC560",
"U$	c #7A7566",
"V$	c #DCC175",
"W$	c #F4D592",
"X$	c #E7BE5A",
"Y$	c #F8F3D5",
"Z$	c #F8EC9A",
"`$	c #EAE3B4",
" %	c #C7C08D",
".%	c #F4ECB8",
"+%	c #F6EFBC",
"@%	c #F4EDB9",
"#%	c #EFE7B4",
"$%	c #E1DAA7",
"%%	c #E1D19D",
"&%	c #E8CE98",
"*%	c #CABB87",
"=%	c #F8E492",
"-%	c #F5F3A9",
";%	c #A89147",
">%	c #808181",
",%	c #C9C9C9",
"'%	c #D7BB65",
")%	c #F3D38C",
"!%	c #DDB447",
"~%	c #F0E9D1",
"{%	c #F8EEB5",
"]%	c #F8E997",
"^%	c #DFD6A7",
"/%	c #C5BC8A",
"(%	c #DED5A1",
"_%	c #E5DCA8",
":%	c #E0D6A1",
"<%	c #DBC58F",
"[%	c #ECCB8F",
"}%	c #CAB986",
"|%	c #F8E28F",
"1%	c #E4CF6A",
"2%	c #83795B",
"3%	c #E0E1E1",
"4%	c #D5D8D8",
"5%	c #CBCCCC",
"6%	c #ACADAD",
"7%	c #D2B458",
"8%	c #F4D28A",
"9%	c #DAB751",
"0%	c #F8F7F2",
"a%	c #ECE1B0",
"b%	c #DBCF9C",
"c%	c #C6B87E",
"d%	c #CAB682",
"e%	c #F3D981",
"f%	c #B59A3F",
"g%	c #7B7C7C",
"h%	c #BFC0C0",
"i%	c #D4D7D7",
"j%	c #B8B9B9",
"k%	c #ABACAC",
"l%	c #D6BF7A",
"m%	c #F5D38C",
"n%	c #F8F1D7",
"o%	c #F8E18E",
"p%	c #F2DE98",
"q%	c #F2DC8E",
"r%	c #F5DE88",
"s%	c #EBCF70",
"t%	c #E0C157",
"u%	c #D7B13E",
"v%	c #B99734",
"w%	c #8A7E58",
"x%	c #989999",
"y%	c #DBDBDB",
"z%	c #D7DADA",
"A%	c #D1D4D4",
"B%	c #C6C7C7",
"C%	c #B5B6B6",
"D%	c #AAAAAA",
"E%	c #595959",
"F%	c #D9C587",
"G%	c #E8C368",
"H%	c #F8E7B3",
"I%	c #F8DC8A",
"J%	c #F3D67E",
"K%	c #E8C966",
"L%	c #D3AD36",
"M%	c #B39438",
"N%	c #9A8648",
"O%	c #867D5E",
"P%	c #767777",
"Q%	c #818282",
"R%	c #989898",
"S%	c #C3C4C4",
"T%	c #D5D7D7",
"U%	c #CFD0D0",
"V%	c #C2C3C3",
"W%	c #A7A8A8",
"X%	c #E0E2E2",
"Y%	c #DAC588",
"Z%	c #E0BC5A",
"`%	c #F8DA8E",
" &	c #F8D986",
".&	c #F0D075",
"+&	c #E6C35F",
"@&	c #DBB647",
"#&	c #C9A433",
"$&	c #AD913C",
"%&	c #94834D",
"&&	c #827A64",
"*&	c #797979",
"=&	c #838383",
"-&	c #AAABAB",
";&	c #D2D4D4",
">&	c #C8CACA",
",&	c #BBBDBD",
"'&	c #A2A2A2",
")&	c #E2E5E5",
"!&	c #DDE0E0",
"~&	c #DBC689",
"{&	c #E0C87D",
"]&	c #F8EFDA",
"^&	c #EDC96D",
"/&	c #E4BE57",
"(&	c #D9B241",
"_&	c #C39F36",
":&	c #A58D40",
"<&	c #8F8153",
"[&	c #7E796A",
"}&	c #C4C5C5",
"|&	c #D4D5D5",
"1&	c #DFDFDF",
"2&	c #D3D6D6",
"3&	c #CCCFCF",
"4&	c #B4B5B5",
"5&	c #A8A9A9",
"6&	c #EAEAEA",
"7&	c #DBC06B",
"8&	c #DEC068",
"9&	c #A08944",
"0&	c #8B7F58",
"a&	c #7F7A6B",
"b&	c #7D7D7D",
"c&	c #8B8C8C",
"d&	c #A0A0A0",
"e&	c #CED0D0",
"f&	c #C5C6C6",
"g&	c #B9BBBB",
"h&	c #ACAEAE",
"i&	c #474747",
"j&	c #D4D4D4",
"k&	c #9E9E9E",
"l&	c #E4E5E5",
"m&	c #E2D8BA",
"n&	c #BBB192",
"o&	c #898780",
"p&	c #909191",
"q&	c #A5A6A6",
"r&	c #D2D5D5",
"s&	c #CECFCF",
"t&	c #AFB1B1",
"u&	c #A6A6A6",
"v&	c #949595",
"w&	c #C4C4C4",
"x&	c #FBFBFB",
"y&	c #DCDDDD",
"z&	c #DADCDC",
"A&	c #D8DADA",
"B&	c #D0D3D3",
"C&	c #CBCDCD",
"D&	c #BABCBC",
"E&	c #B0B1B1",
"F&	c #A0A1A1",
"G&	c #C2C2C2",
"H&	c #CBCBCB",
"I&	c #D1D2D2",
"J&	c #D3D4D4",
"K&	c #D4D6D6",
"L&	c #D3D5D5",
"M&	c #D0D2D2",
"N&	c #CCCECE",
"O&	c #C6C8C8",
"P&	c #C0C2C2",
"Q&	c #B7B8B8",
"R&	c #AFB0B0",
"S&	c #A7A7A7",
"T&	c #A1A2A2",
"U&	c #5C5D5D",
"V&	c #C7C8C8",
"W&	c #C7C9C9",
"X&	c #C5C7C7",
"Y&	c #C2C4C4",
"Z&	c #BEBFBF",
"`&	c #B2B4B4",
" *	c #A5A5A5",
".*	c #515151",
"+*	c #F5F5F5",
"@*	c #B7B7B7",
"#*	c #B5B5B5",
"$*	c #B3B3B3",
"%*	c #AFAFAF",
"&*	c #A3A3A3",
"**	c #898989",
"=*	c #E0E0E0",
"-*	c #5F5F5F",
";*	c #8E8E8E",
">*	c #8B8B8B",
",*	c #7B7B7B",
"'*	c #5A5A5A",
")*	c #979797",
"!*	c #7F7F7F",
"~*	c #626262",
"            . + @ # $ % % % % % % % % % % % % % % % % % % % % % % % % % & & * = + .               ",
"        - ; > , ' ) ! ! ! ! ! ! ! ! ! ! ! ! ! ! ! ! ! ! ! ! ! ! ! ! ! ! ! ~ { ] { ^ / -           ",
"      ( _ : ~ ! < [ } } } } } } } } } } } } } } } } } } } } } } } } } } | 1 2 3 4 5 6 7 8         ",
"    9 0 [ ) a 1 2 3 3 3 3 3 3 3 3 3 3 3 3 3 3 3 3 3 3 3 3 3 3 3 3 3 3 3 3 3 5 3 b c d e f g       ",
"  h @ 6 ) i j k l m n n n n n n n n n n n n n n n n n n n o p q r s t u v n m l l n w x y z .     ",
"  A B   C j D n E F F F F F F F F F F F G H I J K F F F L M N O P Q R S @ T F E U U V ^ W X ]     ",
"Y Z { < 2 b U V `  . . . . . . . . . ...+.@.#.$.%.&.*.=.-.;.>.,.'.).!.~.{.].T ` V ^./.(._.:.<.f   ",
"[.}.|.| 3 n V 1. . . . . . . . . . .2.3.4.5.6.7.8.#.9.0.a.b.c.d.e.f.5.g.h.i.j.k.1.l.l.m.n.o.* 6   ",
"p.q.' 2 D r.s. . . . . . . . . . .t.u.v.w.x.e.'.y.b.z.A.B.C.D.E.).7.!.F.E.G.H.I. .s.J.(.n.K.L.M.  ",
"N.) O.P.Q.R. . . . . . . . . . . .S.T.F.w.).'.f.U.V.W.X.#.Y.C.Z.`.8.g. +>.f H.I. . .` .+, ++@+#+) ",
"$+  } %+Q.F  . . . . . . . . . . .&+*+F.=+>.~.c.-+;+>+,+'+#.)+C.!+~+{+]+c.b ^+*. . .1./+(+K._+:+) ",
"<+) } 3 m F  . . . . . . . . . . .&+*+F.g.[+}+V.|+1+O.i.. 2+3+W.T.4+5+;.6+7+8+9+ . .1.0+, ++a+b+{ ",
"c+! } 3 m F  . . . . . . . . . . .S.d+ +]+e+f+g+h+i.< < i+b j+k+l+W.m+n+o+@.p+q+r+ .1.0+, ++a+b+] ",
"c+! } 3 m F  . . . . . . .s+t+u+v+t.u.{+*+5+w+8 f i+< < i+G.x+y+z+'+A+B+C+g+D+E++.I.1.0+, ++a+b+] ",
"c+! } 3 m F  . . .F+G+H+I+J+K+L+M+N+T z.O+P+1+Q+i+i.i.i.i+i+1+R+H.S+x+T+U+V+W+}+X+Y+1.0+, ++a+b+] ",
"c+! } 3 m F  . .Z+`+ @.@+@@@#@$@%@&@N+*@-.=@h+-@i.G.O.O.i.G.x+;@7+>@b C C ,@'@Z.]+o+9+0+, ++a+b+] ",
"c+! } 3 m F  . .)@!@~@{@{@{@{@{@]@^@/@%.4+(@_@T+Q+:@<@} C [@7+}@|@1@} i+i+i+2@;.3@4@5@0+, ++a+b+] ",
"c+! } 3 m F  .s+6@7@{@{@{@{@{@{@8@9@0@l+e+Z.U.w+a@n.h+. ^ |@b@}@H.1@:@i.i+i+c@(@d@4@e@0+, ++a+b+] ",
"c+! } 3 m F  .f@g@h@{@{@{@{@{@{@{@{@8+T.]+4.i@-+j@k@l@m@n@o@p@q@0 r@s@<@G.< 1@t@4@4@1.0+, ++a+b+] ",
"c+! } 3 m F  .u@v@w@x@x@x@x@x@x@x@x@S.T.]+y@e+!+X+z@A@B@C@D@E@F@G@H@I@N+O.i+U+J@4@ .1.0+, ++a+b+] ",
"c+! } 3 m F  .K@L@M@N@N@N@N@N@N@N@N@..n+e+~+~+O@P@Q@R@S@C [ T@U@V@W@X@Y@P.Z@`@4@4@ .1.0+, ++a+b+] ",
"c+! } 3 m F  .u@ #.#+#+#+#+#+#+#+#+#@#q+Y.##$#%#&#*#=#-#;#>#,#'#)#!#~#{#]#^#4@4@ . .1.0+, ++a+b+] ",
"c+! } 3 m F  .u@/#(#_#_#_#_#_#_#_#:#<#[#}#|#1#2#3#4#5#5#6#7#8#9#0#a#b#c#4@4@4@ . . .1.0+, ++a+b+] ",
"c+! } 3 m F  . .d#e#f#f#f#g#h#i#j#k#l#m#n#o#p#q#r#s#>#t#t#u#v#w#x#y#z#A#4@B#C#C# . .1.0+, ++a+b+] ",
"c+! } 3 m F  . .D#E#F#F#G#H#< I#J#K#L#M#N#O#P#Q#R#S#u#T#u#U#V#W#X#Y#y Z# . . . . . .1.0+, ++a+b+] ",
"c+! } 3 m F  . .`# $.$.$+$@$#$$$%$&$*$=$U#-$;$>$,$'$)$!$~${$]$^$/$b+($ . . ._$ . . .1.0+, ++a+b+] ",
"c+! } 3 m F  . .:$<$[$}$H#|${@{@1$2$V#V#{$3$4$w#5$6$7$8$9$0$a$b$c$d$ . . . . . . . .1.0+, ++a+b+] ",
"c+! } 3 m F  . .e$f$g$h$i$j$k$k$l$m$n$o$p$q$r$s$s$t$u$v$w$x$y$z$A$x  . . . ._$ . . .1.0+, ++a+b+] ",
"c+! } 3 m F  . .B$C$}$D$E$F$F$F$G$H$I$J$K$L$M$N$O$P$Q$Q$R$S$T$U$+  . . . . .C# . . .1.0+, ++a+b+] ",
"c+! } 3 m F  . .V$W$X$J+Y$Z$Z$Z$`$ %.%+%@%#%$%%%&%*%*%Z$=%-%;%>%,% . . . .C# . . . .1.0+, K.a+b+] ",
"c+! } 3 m F  . .'%)%!%~%{%]%]%]%]%^%/%(%_%:%<%[%}%}%]%]%|%1%2%R+3% . . .C# . . . . .1.4%5%o.6%b+] ",
"c+! } 3 m F  . .7%8%9%0%=%=%=%=%=%=%a%b%c%d%d%d%d%=%=%=%e%f%g%h% . . . . . . . . . . .i%_.j%k%b+] ",
"c+! | 3 m F  . .l%m%I+n%o%o%o%o%o%o%o%p%q%o%o%o%r%s%t%u%v%w%x%y% . . . . . . . . .C#z%A%B%C%D%b+] ",
"E%! 1 %+Q.V  . .F%G%K+H%I%I%I%I%I%I%I%I%J%K%h#L%M%N%O%P%Q%R%S% . . . . . . . . . .0+T%U%V%d$W%@ ! ",
"$+! P.%+l X%1. .Y%Z%< `% & & & &.&+&@&#&$&%&&&*&=&H.-&>@ . . . . . . . . . . . .C#4%;&>&,&U+'&;@  ",
"M.) 5 5 D )&!& .~&{&]&F#^&/&(&_&:&<&[&g%A$X Y@}&|&1&Y  . . . . . . . . . . . .C#0+2&3&V%4&5&;@R+  ",
"W 6&[@D D n ^.w ~&7&8&v%9&0&a&b&c&d&C%,%d 3% . . . . . . . . . . . . . . . .z%0+2&e&f&g&h&{#i&j&  ",
"' k&3 1&r.l&^.l.m&n&o&>%p&q&o.J@,@ . . . . . . . . . . . . . . . . .C#C#z%z%4%r&s&B%K.t&u&v&=&]   ",
"  w&x&d (.y&J.w z& .z&z&z&z&z&z&z&z&z&z&z&z&z&z&z&z&z&z&z&z&z&z&z&z&_$A&/+T%B&C&}&D&E&W%F&M.B     ",
"    G&y&H&I&J&e K&L&L&L&L&L&L&L&L&L&L&L&L&L&L&L&L&L&L&L&L&L&L&L&L&L&L&;&M&N&O&P&Q&R&S&T&U&[.      ",
"    z 8 G&>@S%9 V&V&W&W&W&W&W&W&W&W&W&W&W&W&W&W&W&W&W&W&W&W&W&W&W&W&O&X&Y&Z&y `&k% *`@.*[.+*      ",
"      +*8 @*R%C%}.,+@*@*@*@*@*@*@*@*@*@*@*@*@*@*@*@*@*@*@*@*@*@*@*@*}.#*$*%*k%W%&***# [.+*        ",
"          =*h q@-*/ b+b+b+b+b+b+b+b+b+b+b+b+b+b+b+b+b+b+b+b+b+b+b+b+b+;*:+>*,*'*0 )*^             ",
"              ' z #*!*~*~*~*~*~*~*~*~*~*~*~*~*~*~*~*~*~*~*~*~*~*~*~*~*~*~*~*#*T+-@                ",
"                                                                                                  "};
