/* XPM */
static char * quitoff_xpm[] = {
"15 16 112 2",
"  	c #FFFFFF",
". 	c #2C2C2C",
"+ 	c #A6A6A6",
"@ 	c #CECECE",
"# 	c #CBCBCB",
"$ 	c #C6C6C6",
"% 	c #C2C2C2",
"& 	c #BEBEBE",
"* 	c #B9B9B9",
"= 	c #B5B5B5",
"- 	c #B1B1B1",
"; 	c #ACACAC",
"> 	c #A8A8A8",
", 	c #A4A4A4",
"' 	c #898989",
") 	c #CDCDCD",
"! 	c #C9C9C9",
"~ 	c #BBBBBB",
"{ 	c #BCBCBC",
"] 	c #B7B7B7",
"^ 	c #B4B4B4",
"/ 	c #AFAFAF",
"( 	c #ABABAB",
"_ 	c #A3A3A3",
": 	c #A0A0A0",
"< 	c #9E9E9E",
"[ 	c #9A9A9A",
"} 	c #C7C7C7",
"| 	c #C5C5C5",
"1 	c #A9A9A9",
"2 	c #B2B2B2",
"3 	c #ADADAD",
"4 	c #C0C0C0",
"5 	c #9C9C9C",
"6 	c #949494",
"7 	c #C1C1C1",
"8 	c #F0F0F0",
"9 	c #F5F5F5",
"0 	c #9F9F9F",
"a 	c #E1E1E1",
"b 	c #D7D7D7",
"c 	c #8F8F8F",
"d 	c #F8F8F8",
"e 	c #FCFCFC",
"f 	c #D1D1D1",
"g 	c #989898",
"h 	c #ECECEC",
"i 	c #E3E3E3",
"j 	c #C4C4C4",
"k 	c #919191",
"l 	c #E4E4E4",
"m 	c #FDFDFD",
"n 	c #F4F4F4",
"o 	c #D3D3D3",
"p 	c #909090",
"q 	c #878787",
"r 	c #848484",
"s 	c #B0B0B0",
"t 	c #A7A7A7",
"u 	c #FAFAFA",
"v 	c #F6F6F6",
"w 	c #F1F1F1",
"x 	c #DEDEDE",
"y 	c #979797",
"z 	c #868686",
"A 	c #828282",
"B 	c #7E7E7E",
"C 	c #AAAAAA",
"D 	c #A1A1A1",
"E 	c #999999",
"F 	c #8C8C8C",
"G 	c #808080",
"H 	c #7C7C7C",
"I 	c #797979",
"J 	c #E2E2E2",
"K 	c #E6E6E6",
"L 	c #E0E0E0",
"M 	c #C8C8C8",
"N 	c #777777",
"O 	c #737373",
"P 	c #CACACA",
"Q 	c #D0D0D0",
"R 	c #6E6E6E",
"S 	c #D2D2D2",
"T 	c #C3C3C3",
"U 	c #686868",
"V 	c #929292",
"W 	c #B3B3B3",
"X 	c #7A7A7A",
"Y 	c #767676",
"Z 	c #818181",
"` 	c #BFBFBF",
" .	c #636363",
"..	c #8D8D8D",
"+.	c #858585",
"@.	c #757575",
"#.	c #717171",
"$.	c #6D6D6D",
"%.	c #696969",
"&.	c #656565",
"*.	c #626262",
"=.	c #5E5E5E",
"-.	c #747474",
";.	c #838383",
">.	c #7F7F7F",
",.	c #7B7B7B",
"'.	c #6F6F6F",
").	c #6C6C6C",
"!.	c #646464",
"~.	c #616161",
"{.	c #5D5D5D",
"].	c #505050",
"  . . . . . . . . . . . . .   ",
". + @ # $ % & * = - ; > , ' . ",
". ) ! * ~ { ] ^ / ( _ : < [ . ",
". } > | | 1 2 3 1 : | 4 5 6 . ",
". 7 = 8 9 # _ > 0 } a b 2 c . ",
". ~ 1 | d e f g ) h i j k ' . ",
". = - _ l e m h n h o p q r . ",
". s ( t : l u v w x y z A B . ",
". C + D E ) n w h ) F G H I . ",
". , 0 < $ h h J K L M q N O . ",
". < [ @ a i P k P b Q 7 A R . ",
". g 5 S b j ' G q T } & ; U . ",
". V c W * ' B X Y Z & ` q  .. ",
". ..' +.Z H I @.#.$.%.&.*.=.. ",
". -.;.>.,.N O '.).U !.~.{.].. ",
"  . . . . . . . . . . . . .   "};
