/* XPM */
static char * quiton_xpm[] = {
"15 16 105 2",
"  	c #FFFFFF",
". 	c #202020",
"+ 	c #B0B0B0",
"@ 	c #E9E9E9",
"# 	c #E5E5E5",
"$ 	c #DEDEDE",
"% 	c #D8D8D8",
"& 	c #D1D1D1",
"* 	c #CBCBCB",
"= 	c #C6C6C6",
"- 	c #BFBFBF",
"; 	c #B8B8B8",
"> 	c #B3B3B3",
", 	c #ADADAD",
"' 	c #898989",
") 	c #E8E8E8",
"! 	c #E2E2E2",
"~ 	c #CCCCCC",
"{ 	c #CECECE",
"] 	c #CFCFCF",
"^ 	c #C8C8C8",
"/ 	c #C3C3C3",
"( 	c #BDBDBD",
"_ 	c #B7B7B7",
": 	c #A8A8A8",
"< 	c #A5A5A5",
"[ 	c #9F9F9F",
"} 	c #E0E0E0",
"| 	c #B4B4B4",
"1 	c #B5B5B5",
"2 	c #C0C0C0",
"3 	c #BABABA",
"4 	c #A7A7A7",
"5 	c #E3E3E3",
"6 	c #DADADA",
"7 	c #A3A3A3",
"8 	c #979797",
"9 	c #D7D7D7",
"0 	c #EBEBEB",
"a 	c #ACACAC",
"b 	c #A6A6A6",
"c 	c #F9F9F9",
"d 	c #C4C4C4",
"e 	c #909090",
"f 	c #F4F4F4",
"g 	c #9E9E9E",
"h 	c #EFEFEF",
"i 	c #E1E1E1",
"j 	c #949494",
"k 	c #FAFAFA",
"l 	c #F3F3F3",
"m 	c #939393",
"n 	c #868686",
"o 	c #828282",
"p 	c #BEBEBE",
"q 	c #B1B1B1",
"r 	c #9D9D9D",
"s 	c #858585",
"t 	c #7F7F7F",
"u 	c #7B7B7B",
"v 	c #AFAFAF",
"w 	c #AAAAAA",
"x 	c #EEEEEE",
"y 	c #8E8E8E",
"z 	c #7E7E7E",
"A 	c #797979",
"B 	c #747474",
"C 	c #E4E4E4",
"D 	c #E6E6E6",
"E 	c #888888",
"F 	c #727272",
"G 	c #6D6D6D",
"H 	c #A0A0A0",
"I 	c #959595",
"J 	c #EAEAEA",
"K 	c #F2F2F2",
"L 	c #DCDCDC",
"M 	c #676767",
"N 	c #8A8A8A",
"O 	c #7D7D7D",
"P 	c #878787",
"Q 	c #606060",
"R 	c #919191",
"S 	c #767676",
"T 	c #717171",
"U 	c #818181",
"V 	c #D9D9D9",
"W 	c #8B8B8B",
"X 	c #5A5A5A",
"Y 	c #848484",
"Z 	c #6F6F6F",
"` 	c #6B6B6B",
" .	c #666666",
"..	c #616161",
"+.	c #5C5C5C",
"@.	c #595959",
"#.	c #545454",
"$.	c #777777",
"%.	c #686868",
"&.	c #646464",
"*.	c #5F5F5F",
"=.	c #5B5B5B",
"-.	c #585858",
";.	c #535353",
">.	c #444444",
"  . . . . . . . . . . . . .   ",
". + @ # $ % & * = - ; > , ' . ",
". ) ! ~ { ] ^ / ( _ , : < [ . ",
". } | ! ! 1 2 3 | 4 5 6 7 8 . ",
". 9 ^     0 a > b #   c d e . ",
". { 1 !     f g h     i j ' . ",
". = - a k           l m n o . ",
". p _ q :           r s t u . ",
". 1 v w [ h       x y z A B . ",
". , b b C           D E F G . ",
". < H h     0 I J c K L o M . ",
". r < f c i N O P } D % p Q . ",
". I R = ] E u S T U % V W X . ",
". y E Y z A B Z `  ...+.@.#.. ",
". Z U O $.F G %.&.*.=.-.;.>.. ",
"  . . . . . . . . . . . . .   "};
