/* XPM */
static char * snap_noborder_xpm[] = {
"32 32 366 2",
"  	c #FFFFFF",
". 	c #8B8B8B",
"+ 	c #000000",
"@ 	c #ACACAC",
"# 	c #CACACA",
"$ 	c #F4F4F4",
"% 	c #FAFAFA",
"& 	c #FDFDFD",
"* 	c #EFEFEF",
"= 	c #C0C0C0",
"- 	c #C4C4C4",
"; 	c #ECECEC",
"> 	c #F7F7F7",
", 	c #F6F6F6",
"' 	c #EAEAEA",
") 	c #B5B5B5",
"! 	c #7F7F7F",
"~ 	c #848484",
"{ 	c #787878",
"] 	c #494949",
"^ 	c #9B9B9B",
"/ 	c #CBCBCB",
"( 	c #999999",
"_ 	c #353535",
": 	c #434343",
"< 	c #B8B8B8",
"[ 	c #C5C5C5",
"} 	c #A7A7A7",
"| 	c #1D1D1D",
"1 	c #E4E4E4",
"2 	c #363636",
"3 	c #5A5A5A",
"4 	c #656565",
"5 	c #666666",
"6 	c #646464",
"7 	c #454545",
"8 	c #BDBDBD",
"9 	c #676766",
"0 	c #606060",
"a 	c #757575",
"b 	c #8F8F8F",
"c 	c #737373",
"d 	c #535353",
"e 	c #343434",
"f 	c #8A8A8A",
"g 	c #595959",
"h 	c #616161",
"i 	c #808080",
"j 	c #AAAAAA",
"k 	c #B2B2B2",
"l 	c #919191",
"m 	c #565656",
"n 	c #4C4C4C",
"o 	c #373737",
"p 	c #414141",
"q 	c #707070",
"r 	c #6B6A68",
"s 	c #646361",
"t 	c #676563",
"u 	c #6A6967",
"v 	c #737270",
"w 	c #A3A3A3",
"x 	c #E5E5E5",
"y 	c #E0E0E0",
"z 	c #7C7C7C",
"A 	c #ADADAD",
"B 	c #868686",
"C 	c #9A9A9A",
"D 	c #6F6F6F",
"E 	c #4E4E4E",
"F 	c #6B6B6B",
"G 	c #63625E",
"H 	c #6F6F6D",
"I 	c #7C7B79",
"J 	c #61605E",
"K 	c #323232",
"L 	c #555453",
"M 	c #767572",
"N 	c #E6E6E6",
"O 	c #DEDEDE",
"P 	c #838383",
"Q 	c #A2A2A2",
"R 	c #908F8F",
"S 	c #818080",
"T 	c #7A7A78",
"U 	c #6D6C6B",
"V 	c #727170",
"W 	c #767675",
"X 	c #6C6C6C",
"Y 	c #B1AFAC",
"Z 	c #868582",
"` 	c #81807C",
" .	c #6F6E6B",
"..	c #6F6E6C",
"+.	c #4E4D4C",
"@.	c #80807E",
"#.	c #666562",
"$.	c #404040",
"%.	c #626262",
"&.	c #525252",
"*.	c #91908E",
"=.	c #727270",
"-.	c #767775",
";.	c #696A69",
">.	c #515352",
",.	c #585958",
"'.	c #636562",
").	c #5F605D",
"!.	c #828281",
"~.	c #727272",
"{.	c #696969",
"].	c #6E6E6E",
"^.	c #888781",
"/.	c #B5B4B2",
"(.	c #B2B2B0",
"_.	c #C2C1BF",
":.	c #C7C7C6",
"<.	c #B7B7B6",
"[.	c #605F5D",
"}.	c #222220",
"|.	c #4A4A4A",
"1.	c #777777",
"2.	c #B4B3B3",
"3.	c #80807F",
"4.	c #686B68",
"5.	c #5B5F5D",
"6.	c #5F6262",
"7.	c #5D6161",
"8.	c #525656",
"9.	c #4A4E4B",
"0.	c #3E423D",
"a.	c #51534F",
"b.	c #686967",
"c.	c #6A6A6A",
"d.	c #828077",
"e.	c #7F7D74",
"f.	c #747168",
"g.	c #6C6A62",
"h.	c #615E57",
"i.	c #57554F",
"j.	c #3F3D39",
"k.	c #242320",
"l.	c #9E9E9E",
"m.	c #929392",
"n.	c #5C5F5F",
"o.	c #626665",
"p.	c #4A4E50",
"q.	c #424849",
"r.	c #43484A",
"s.	c #42474A",
"t.	c #3E4345",
"u.	c #363A3A",
"v.	c #2F332E",
"w.	c #2F322C",
"x.	c #3A3D38",
"y.	c #6A6968",
"z.	c #7D7D7D",
"A.	c #827F77",
"B.	c #807D75",
"C.	c #6D6A63",
"D.	c #615F58",
"E.	c #403F3B",
"F.	c #2E2C2A",
"G.	c #4B4B4B",
"H.	c #6D6D6D",
"I.	c #797979",
"J.	c #949392",
"K.	c #616565",
"L.	c #585D5D",
"M.	c #3F4444",
"N.	c #565957",
"O.	c #5C5F5E",
"P.	c #4D5153",
"Q.	c #474C4D",
"R.	c #54585A",
"S.	c #515456",
"T.	c #3B4041",
"U.	c #2C2F2A",
"V.	c #2A2A23",
"W.	c #53524F",
"X.	c #7A7A7A",
"Y.	c #817E75",
"Z.	c #7F7C74",
"`.	c #737068",
" +	c #6D6A62",
".+	c #403E39",
"++	c #2F2E2B",
"@+	c #747474",
"#+	c #7B7D7D",
"$+	c #515657",
"%+	c #444847",
"&+	c #606262",
"*+	c #353939",
"=+	c #101111",
"-+	c #060606",
";+	c #090909",
">+	c #151717",
",+	c #444647",
"'+	c #535657",
")+	c #373C3E",
"!+	c #2B2C28",
"~+	c #383630",
"{+	c #706F6F",
"]+	c #737067",
"^+	c #57544E",
"/+	c #626464",
"(+	c #727677",
"_+	c #383B39",
":+	c #464646",
"<+	c #313131",
"[+	c #1F1F1F",
"}+	c #1D1E1E",
"|+	c #383C3C",
"1+	c #44494C",
"2+	c #313534",
"3+	c #2A2922",
"4+	c #6E6D6B",
"5+	c #7F7D75",
"6+	c #7E7B73",
"7+	c #605E57",
"8+	c #55544D",
"9+	c #403D39",
"0+	c #2E2E2A",
"a+	c #5F6061",
"b+	c #404647",
"c+	c #484C4C",
"d+	c #4C5051",
"e+	c #2C2D2B",
"f+	c #A9A9A9",
"g+	c #4F4F4F",
"h+	c #3F3F3F",
"i+	c #292B2B",
"j+	c #484D50",
"k+	c #42494B",
"l+	c #1C1C17",
"m+	c #4E4D4B",
"n+	c #717171",
"o+	c #726F67",
"p+	c #6C6961",
"q+	c #55534D",
"r+	c #3F3D38",
"s+	c #676868",
"t+	c #393E3F",
"u+	c #535756",
"v+	c #464A47",
"w+	c #242423",
"x+	c #F3F3F3",
"y+	c #444444",
"z+	c #474C4F",
"A+	c #484E51",
"B+	c #1D1D1A",
"C+	c #51504E",
"D+	c #7D7A73",
"E+	c #6B6861",
"F+	c #605D57",
"G+	c #3E3D38",
"H+	c #2E2D2A",
"I+	c #484848",
"J+	c #646565",
"K+	c #373B3C",
"L+	c #4C5253",
"M+	c #3A3E3A",
"N+	c #080807",
"O+	c #7B7B7B",
"P+	c #545454",
"Q+	c #3C3C3C",
"R+	c #494E51",
"S+	c #484D51",
"T+	c #242523",
"U+	c #6D6D6B",
"V+	c #F7F6E0",
"W+	c #7D7A72",
"X+	c #716F67",
"Y+	c #5F5D56",
"Z+	c #54524C",
"`+	c #3E3C38",
" @	c #69696A",
".@	c #394143",
"+@	c #333837",
"@@	c #111210",
"#@	c #939393",
"$@	c #404141",
"%@	c #434A4D",
"&@	c #3F4649",
"*@	c #2D2F2E",
"=@	c #737372",
"-@	c #F1F0DA",
";@	c #7E7B74",
">@	c #716E66",
",@	c #6A6860",
"'@	c #5E5C56",
")@	c #53514C",
"!@	c #3E3C37",
"~@	c #6E6F6E",
"{@	c #2F3132",
"]@	c #363E3E",
"^@	c #3B4346",
"/@	c #252926",
"(@	c #1B1C1B",
"_@	c #464647",
":@	c #4D4F52",
"<@	c #3B4247",
"[@	c #303538",
"}@	c #444545",
"|@	c #505050",
"1@	c #F0EFCD",
"2@	c #4B4B42",
"3@	c #4E4C4A",
"4@	c #7B7871",
"5@	c #6F6D65",
"6@	c #6A6760",
"7@	c #605D56",
"8@	c #54514C",
"9@	c #393733",
"0@	c #121313",
"a@	c #343A3B",
"b@	c #3B4347",
"c@	c #3E4443",
"d@	c #2A2E2D",
"e@	c #272828",
"f@	c #3B3B3B",
"g@	c #3C3E3E",
"h@	c #464A4D",
"i@	c #464C4F",
"j@	c #3D4247",
"k@	c #92927C",
"l@	c #515148",
"m@	c #403F36",
"n@	c #898161",
"o@	c #908F8A",
"p@	c #1B1B1C",
"q@	c #5A5D5E",
"r@	c #525657",
"s@	c #3C4143",
"t@	c #393E42",
"u@	c #3F4548",
"v@	c #484C4F",
"w@	c #5B5D5F",
"x@	c #55595B",
"y@	c #525253",
"z@	c #A0A0A0",
"A@	c #B6B6B6",
"B@	c #A79F6C",
"C@	c #4C4C48",
"D@	c #3B3D3E",
"E@	c #494E52",
"F@	c #42494D",
"G@	c #42484C",
"H@	c #5A5E60",
"I@	c #4B4F52",
"J@	c #4E5255",
"K@	c #555556",
"L@	c #BFBFBF",
"M@	c #E2DFD0",
"N@	c #F2F2E3",
"O@	c #F2F2F2",
"P@	c #B2B2B3",
"Q@	c #6A6B6C",
"R@	c #46484A",
"S@	c #8E8E8E",
"T@	c #C3C3C3",
"U@	c #D1D1D1",
"V@	c #DCDCDC",
"W@	c #D2D2D2",
"X@	c #A5A5A5",
"Y@	c #9C9C9C",
"                                                                ",
"                                                                ",
"                                                                ",
"                                . + + + + + + + @               ",
"                                + # $ % & % * = +               ",
"                                + - ; > % , ' ) +               ",
"                                + ! ~ ~ ~ ~ ~ { +               ",
"                                + ] ^ / / = ( _ +               ",
"                                + : < [ [ [ } | +               ",
"                            1 2 + 3 4 5 5 5 6 7 +               ",
"                    / 8 @ + + 9 0 a b b b b b c d e + + 6       ",
"          f + + + + + + 6 g h i ^ j ) ) ) ) ) k l d m n o p     ",
"    q + + + r s t u v w 4 x y z A . f ~ ~ ~ ~ B C { D z c E F   ",
"    + G H I J g K L M b 3 N O P Q . R S T U V W ~ . X { ! q +   ",
"    + Y Z `  ...+.@.#.$.%.&.5 k l *.=.-.;.>.,.'.).!.~.{.%.].+   ",
"    + ^./.(._.:.<.[.}.|.c {.1.2.3.4.5.6.7.8.8.9.0.a.b.c.! ! +   ",
"    + d.e.f.g.h.i.j.k.n a q l.m.n.o.p.q.r.s.t.u.v.w.x.y.z.i +   ",
"    + A.B.f.C.D.i.E.F.G.H.I.J.K.L.M.N.O.P.Q.R.S.T.U.V.W.X.! +   ",
"  , + Y.Z.`. +D.i..+++G.@+@+#+$+%+&+*+=+-+;+>+,+'+)+!+~+{+X.+   ",
"    + B.Z.]+g.D.^+.+++G.@+/+(+M.O._+e :+<+[+[+}+|+1+2+3+4+i +   ",
"    + 5+6+`.g.7+8+9+0+] ].a+b+c+d+e+f+i Q g+h+<+i+j+k+l+m+n++   ",
"    + e.6+o+p+7+q+r+0+] X s+t+u+v+w+X Q x+l 6 y+<+z+A+B+C+X +   ",
"    + Z.D+o+E+F+q+G+H+I+~.J+K+L+M+N+: I.^ Q O+P+Q+R+S+T+U+@++   ",
"  V++ 6+W+X+E+Y+Z+`+H+|.a  @K+.@+@@@[+h+6 O+q #@$@%@&@*@=@q +   ",
"  -@+ ;@W+>@,@'@)@!@H+I+1.~@{@]@^@/@(@<+y+P+P+_@:@<@[@}@a |@|.  ",
"  1@2@3@4@5@6@7@8@9@+ + + + 0@a@b@c@d@e@<+f@g@h@i@j@+ + + |.#@  ",
"    k@l@+ + + + + + m@h l n@o@p@+ q@r@s@t@u@v@w@x@+ y@z@A@      ",
"      o@o@o@o@o@B@            C@D@+ E@F@G@H@I@J@+ K@l.L@        ",
"          M@N@O@                P@Q@R@+ + + + |.S@T@U@          ",
"                                V@W@= X@b Y@k #                 ",
"                                                                ",
"                                                                "};
