/* XPM */
static char * snap_off2_xpm[] = {
"49 45 470 2",
"  	c None",
". 	c #DEDEDE",
"+ 	c #A9A9A9",
"@ 	c #878787",
"# 	c #959595",
"$ 	c #6B6B6B",
"% 	c #737373",
"& 	c #727272",
"* 	c #6D6D6C",
"= 	c #505151",
"- 	c #DCDCDC",
"; 	c #A8A8A8",
"> 	c #9C9C9C",
", 	c #CCCCCC",
"' 	c #F8F8F8",
") 	c #FDFDFD",
"! 	c #FCFDFD",
"~ 	c #FCFCFC",
"{ 	c #F9F9F9",
"] 	c #D5D5D5",
"^ 	c #828282",
"/ 	c #C3C3C3",
"( 	c #8A8A8A",
"_ 	c #D0D1D1",
": 	c #F7F8F8",
"< 	c #F1F2F2",
"[ 	c #F0F1F1",
"} 	c #EFF0F0",
"| 	c #ECEDED",
"1 	c #EBECEC",
"2 	c #E7E8E8",
"3 	c #EAEBEB",
"4 	c #EEEEEE",
"5 	c #D2D2D2",
"6 	c #D3D3D3",
"7 	c #C6C6C6",
"8 	c #939393",
"9 	c #E7E9E9",
"0 	c #E3E4E4",
"a 	c #D6D8D8",
"b 	c #D4D5D5",
"c 	c #F2F2F2",
"d 	c #E1E1E1",
"e 	c #F1F3F3",
"f 	c #EBEDED",
"g 	c #E9EBEB",
"h 	c #E6E8E8",
"i 	c #E4E6E6",
"j 	c #DBDDDD",
"k 	c #D0D2D2",
"l 	c #B8B9B9",
"m 	c #ECECEC",
"n 	c #ACACAC",
"o 	c #C7C8C8",
"p 	c #FEFEFE",
"q 	c #F3F3F3",
"r 	c #E1E4E4",
"s 	c #DEE1E1",
"t 	c #E3E5E5",
"u 	c #C7C7C7",
"v 	c #9B9B9B",
"w 	c #E7E7E7",
"x 	c #969696",
"y 	c #DADDDD",
"z 	c #D9DCDC",
"A 	c #E1E3E3",
"B 	c #DEE0E0",
"C 	c #D7D9D9",
"D 	c #C8C9C9",
"E 	c #B7B8B8",
"F 	c #939493",
"G 	c #B4B4B4",
"H 	c #B6B6B6",
"I 	c #D8D9D9",
"J 	c #BABBBB",
"K 	c #909090",
"L 	c #F2F3F3",
"M 	c #E2E4E4",
"N 	c #DBDEDE",
"O 	c #9A9B9B",
"P 	c #2A2A2A",
"Q 	c #B5B5B5",
"R 	c #BBBCBC",
"S 	c #9D9E9D",
"T 	c #9D9D9C",
"U 	c #848484",
"V 	c #F3F4F4",
"W 	c #F6F7F7",
"X 	c #EBEBEB",
"Y 	c #C4C5C4",
"Z 	c #ADAEAE",
"` 	c #393939",
" .	c #2B2B2B",
"..	c #C7C9C9",
"+.	c #D6D9D9",
"@.	c #CCCDCD",
"#.	c #ADADAD",
"$.	c #8C8C8C",
"%.	c #5B5C5B",
"&.	c #909191",
"*.	c #939494",
"=.	c #8B8B8B",
"-.	c #ACADAD",
";.	c #8F8F8F",
">.	c #666766",
",.	c #646464",
"'.	c #A7A7A7",
").	c #CDCDCD",
"!.	c #A5A6A6",
"~.	c #545454",
"{.	c #606060",
"].	c #BDBEBE",
"^.	c #B1B1B1",
"/.	c #414242",
"(.	c #E2E2E2",
"_.	c #545656",
":.	c #727373",
"<.	c #7B7C7B",
"[.	c #7C7C7C",
"}.	c #7A7B7B",
"|.	c #616262",
"1.	c #C2C3C3",
"2.	c #767878",
"3.	c #878888",
"4.	c #9D9D9D",
"5.	c #6C6C6C",
"6.	c #535353",
"7.	c #999A9A",
"8.	c #777979",
"9.	c #919292",
"0.	c #B3B4B4",
"a.	c #9E9E9E",
"b.	c #6E7070",
"c.	c #666867",
"d.	c #555757",
"e.	c #5D5E5E",
"f.	c #80807D",
"g.	c #797978",
"h.	c #7C7C7A",
"i.	c #7E7E7C",
"j.	c #878685",
"k.	c #E3E3E3",
"l.	c #8D8D8D",
"m.	c #B5B6B6",
"n.	c #969796",
"o.	c #A6A7A7",
"p.	c #838484",
"q.	c #696968",
"r.	c #808181",
"s.	c #797976",
"t.	c #838482",
"u.	c #8D8D8C",
"v.	c #787876",
"w.	c #525353",
"x.	c #888886",
"y.	c #E4E4E4",
"z.	c #DCDDDD",
"A.	c #929292",
"B.	c #8C8D8B",
"C.	c #828281",
"D.	c #858584",
"E.	c #888988",
"F.	c #818282",
"G.	c #B9B8B5",
"H.	c #969692",
"I.	c #92918D",
"J.	c #838381",
"K.	c #838382",
"L.	c #696867",
"M.	c #919290",
"N.	c #7C7C79",
"O.	c #5C5D5D",
"P.	c #787979",
"Q.	c #9E9E9C",
"R.	c #7F807F",
"S.	c #6B6C6C",
"T.	c #717271",
"U.	c #7A7C79",
"V.	c #767875",
"W.	c #939392",
"X.	c #868686",
"Y.	c #7E7E7E",
"Z.	c #838383",
"`.	c #989792",
" +	c #BBBCBA",
".+	c #B8B9B8",
"++	c #C5C5C4",
"@+	c #CACBCA",
"#+	c #BDBDBC",
"$+	c #767775",
"%+	c #444543",
"&+	c #656666",
"*+	c #898989",
"=+	c #BBBBBB",
"-+	c #919291",
";+	c #7E817E",
">+	c #737775",
",+	c #767979",
"'+	c #757979",
")+	c #6C7070",
"!+	c #656966",
"~+	c #5C605C",
"{+	c #6B6C6A",
"]+	c #7D7E7C",
"^+	c #7F8080",
"/+	c #93918A",
"(+	c #908F88",
"_+	c #86857D",
":+	c #818079",
"<+	c #787671",
"[+	c #706F6A",
"}+	c #5D5C57",
"|+	c #474744",
"1+	c #A8A9A9",
"2+	c #A0A1A0",
"3+	c #737677",
"4+	c #797C7B",
"5+	c #65696B",
"6+	c #5F6465",
"7+	c #606466",
"8+	c #5F6466",
"9+	c #5C6062",
"0+	c #555959",
"a+	c #50534F",
"b+	c #50534E",
"c+	c #595C57",
"d+	c #7E7E7D",
"e+	c #8E8E8E",
"f+	c #82807A",
"g+	c #787771",
"h+	c #5C5C5A",
"i+	c #4E4E4C",
"j+	c #8B8C8C",
"k+	c #A1A1A0",
"l+	c #787C7B",
"m+	c #717575",
"n+	c #5C6161",
"o+	c #6E7171",
"p+	c #747775",
"q+	c #686C6C",
"r+	c #626768",
"s+	c #6D7172",
"t+	c #6B6E70",
"u+	c #595D5E",
"v+	c #4D504C",
"w+	c #4C4C47",
"x+	c #6C6C6A",
"y+	c #8C8D8D",
"z+	c #929089",
"A+	c #908E88",
"B+	c #86847D",
"C+	c #828079",
"D+	c #504F4D",
"E+	c #8D8E8E",
"F+	c #6B7071",
"G+	c #616464",
"H+	c #545857",
"I+	c #373838",
"J+	c #2E2E2E",
"K+	c #313231",
"L+	c #3A3C3C",
"M+	c #616364",
"N+	c #6D7071",
"O+	c #565A5B",
"P+	c #4C4E4B",
"Q+	c #575651",
"R+	c #86847C",
"S+	c #706E69",
"T+	c #797B7B",
"U+	c #868989",
"V+	c #565A58",
"W+	c #626363",
"X+	c #515252",
"Y+	c #434343",
"Z+	c #414343",
"`+	c #565A5A",
" @	c #616568",
".@	c #515453",
"+@	c #4C4B46",
"@@	c #838281",
"#@	c #8E8D87",
"$@	c #777671",
"%@	c #6D6D68",
"&@	c #767879",
"*@	c #5C6264",
"=@	c #646868",
"-@	c #666A6B",
";@	c #4D4E4C",
">@	c #B2B3B3",
",@	c #6A6A6A",
"'@	c #5C5C5C",
")@	c #4B4D4C",
"!@	c #64686B",
"~@	c #5F6567",
"{@	c #40413D",
"]@	c #696866",
"^@	c #848585",
"/@	c #85837C",
"(@	c #807E79",
"_@	c #6D6C68",
":@	c #7C7D7D",
"<@	c #585C5C",
"[@	c #6D7170",
"}@	c #626564",
"|@	c #474747",
"1@	c #EDEEEE",
"2@	c #616161",
"3@	c #63686A",
"4@	c #64696B",
"5@	c #41423E",
"6@	c #6B6B69",
"7@	c #777571",
"8@	c #5C5C57",
"9@	c #7A7C7B",
"0@	c #666C6C",
"a@	c #595C59",
"b@	c #303130",
"c@	c #6D6D6D",
"d@	c #5A5B5B",
"e@	c #474847",
"f@	c #F1F1DF",
"g@	c #8E8D86",
"h@	c #84837C",
"i@	c #767570",
"j@	c #5C5B57",
"k@	c #7F7F80",
"l@	c #585E60",
"m@	c #535857",
"n@	c #373937",
"o@	c #A0A1A1",
"p@	c #5C5E5E",
"q@	c #606668",
"r@	c #4E504E",
"s@	c #878786",
"t@	c #ECECDA",
"u@	c #7E7D78",
"v@	c #6C6C68",
"w@	c #838483",
"x@	c #505253",
"y@	c #555B5B",
"z@	c #596063",
"A@	c #474A48",
"B@	c #404140",
"C@	c #626364",
"D@	c #67696C",
"E@	c #596064",
"F@	c #505558",
"G@	c #6A6B6B",
"H@	c #ECEBD0",
"I@	c #656660",
"J@	c #8D8B86",
"K@	c #83827C",
"L@	c #7E7C78",
"M@	c #777570",
"N@	c #585753",
"O@	c #383A3A",
"P@	c #54595A",
"Q@	c #5C6160",
"R@	c #4C4E4E",
"S@	c #494B4B",
"T@	c #585A5A",
"U@	c #5A5C5B",
"V@	c #616668",
"W@	c #62686A",
"X@	c #5B6064",
"Y@	c #D5D8D8",
"Z@	c #CBCCCC",
"`@	c #A0A08E",
" #	c #6A6B64",
".#	c #5D5C56",
"+#	c #989279",
"@#	c #9D9D9A",
"##	c #404041",
"$#	c #727576",
"%#	c #6C7071",
"&#	c #595E60",
"*#	c #585C60",
"=#	c #64686A",
"-#	c #727577",
";#	c #6D7173",
">#	c #ABACAC",
",#	c #BCBCBC",
"'#	c #D4D7D7",
")#	c #B1AB82",
"!#	c #666864",
"~#	c #595C5B",
"{#	c #65696C",
"]#	c #5F6568",
"^#	c #5F6468",
"/#	c #727678",
"(#	c #696C6E",
"_#	c #6D6F70",
":#	c #D8DBDB",
"<#	c #D1D4D4",
"[#	c #C6C7C7",
"}#	c #575959",
"|#	c #E0DED2",
"1#	c #EDEEE2",
"2#	c #B9BABB",
"3#	c #7F8181",
"4#	c #626465",
"5#	c #9C9D9C",
"6#	c #D5D7D7",
"7#	c #CFD0D0",
"8#	c #B3B3B3",
"9#	c #A7A8A8",
"0#	c #DADCDC",
"a#	c #D3D4D4",
"b#	c #AFB0B0",
"c#	c #D2D4D4",
"d#	c #A2A2A2",
"e#	c #E2E5E5",
"f#	c #DDE0E0",
"g#	c #D3D5D5",
"h#	c #CCCECE",
"i#	c #B4B5B5",
"j#	c #9F9F9F",
"k#	c #EAEAEA",
"l#	c #CED0D0",
"m#	c #C4C5C5",
"n#	c #B9BBBB",
"o#	c #A3A4A4",
"p#	c #D4D4D4",
"q#	c #DDDEDE",
"r#	c #E4E5E5",
"s#	c #D2D5D5",
"t#	c #CDCECE",
"u#	c #A6A6A6",
"v#	c #F8F9F9",
"w#	c #C4C4C4",
"x#	c #FBFBFB",
"y#	c #DBDCDC",
"z#	c #D9DBDB",
"A#	c #D0D3D3",
"B#	c #BABCBC",
"C#	c #B1B2B2",
"D#	c #C8C8C8",
"E#	c #C2C3C2",
"F#	c #CBCBCB",
"G#	c #D1D2D2",
"H#	c #C6C8C8",
"I#	c #C1C2C2",
"J#	c #A1A2A2",
"K#	c #5B5C5C",
"L#	c #EDEDED",
"M#	c #C2C2C2",
"N#	c #C1C2C1",
"O#	c #C3C4C4",
"P#	c #C5C5C5",
"Q#	c #C5C7C7",
"R#	c #C2C4C4",
"S#	c #A4A4A4",
"T#	c #A1A1A1",
"U#	c #515151",
"V#	c #F5F5F5",
"W#	c #B7B7B7",
"X#	c #989795",
"Y#	c #AEAEAE",
"Z#	c #A3A3A3",
"`#	c #888888",
" $	c #F5F6F6",
".$	c #696967",
"+$	c #5D5D5D",
"@$	c #7B7B7B",
"#$	c #5A5A5A",
"$$	c #979797",
"%$	c #D6D6D6",
"&$	c #7D7D7D",
"*$	c #626262",
"=$	c #CECECE",
"            . + @ # $ % % % % % % % % % % % % % % % % % % % % % % % % % & & * = + .               ",
"        - ; > , ' ) ) ) ) ) ) ) ) ) ) ) ) ) ) ) ) ) ) ) ) ) ) ) ) ) ) ) ) ! ~ { ~ ] ^ -           ",
"      / ( _ ! ) : < < < < < < < < < < < < < < < < < < < < < < < < < < < [ } | 1 2 3 4 5 6         ",
"    7 8 < ) : } | 1 1 1 1 1 1 1 1 1 1 1 1 1 1 1 1 1 1 1 1 1 1 1 1 1 1 1 1 1 3 1 9 0 a b c ,       ",
"  d @ 4 ) e f g h i i i i i i i i i i i i i i i i i i i i i i i i i i i i i i h h i j k l m j     ",
"  n o p q f 9 i r s s s s s s s s s s s s s s s s s s s s s s s s s s s s s s r t t s ] u v {     ",
"w x ~ : | 9 t s y z z z z z z z z z z z z z z z z z z z z z z z z z z z z z z y s A B C D E F c   ",
"G H ) [ 1 i s z z z z z z z z z z z z z z z z z z z z z z z z z z z z z z z z z z B B I , J * 4   ",
"K L ' | 9 M N z z z z z z z z z z z z z z z z z O P P P P P P P Q z z z z z z z z N N C , R S T p ",
"U ) V 1 i s z z z z z z z z z z z z z z z z z z P , 4 q W q X Y P z z z z z z z z z y a , R Z ` ) ",
" .p < 1 i s z z z z z z z z z z z z z z z z z z P ..9 < q [ w R P z z z z z z z z z z +.@.R #.$.) ",
"%.) < 1 i s z z z z z z z z z z z z z z z z z z P &.*.*.*.*.*.=.P z z z z z z z z z z +., R -.;.~ ",
">.) < 1 i s z z z z z z z z z z z z z z z z z z P ,.'.).).Y !.~.P z z z z z z z z z z +., R -.;.{ ",
">.) < 1 i s z z z z z z z z z z z z z z z z z z P {.].D D D ^./.P z z z z z z z z z z +., R -.;.{ ",
">.) < 1 i s z z z z z z z z z z z z z z z z (._.P :.<.[.[.[.}.|.P z z z z z z z z z z +., R -.;.{ ",
">.) < 1 i s z z z z z z z z z z z z ).1.Q P P [.2.3.4.4.4.4.4.@ 5.6.P P }.z z z z z z +., R -.;.{ ",
">.) < 1 i s z z z z z z z 7.P P P P P P }.& 8.9.'.0.R R R R R l a.5.b.c.d.e.z z z z z +., R -.;.{ ",
">.) < 1 i s z z z z U P P P f.g.h.i.j.-.<.k.. l.m.O 7.*.*.*.*.n.o.=.p.l.@ q.r.z z z z +., R -.;.{ ",
">.) < 1 i s z z z z P s.t.u.v.& w.* x.4.:.y.z.F -.O 4.A.B.C.D.E.*.O F.=.&.U P z z z z +., R -.;.{ ",
">.) < 1 i s z z z z P G.H.I.J.K.L.M.N.O.P.5.[.l a.Q.D.E.R.S.T.U.V.W.X.Y.P.Z.P z z z z +., R -.;.{ ",
">.) < 1 i s z z z z P `. +.+++@+#+$+%+&+@ Y.*+=+-+;+>+,+'+)+)+!+~+{+]+^+&.&.P z z z z +., R -.;.{ ",
">.) < 1 i s z z z z P /+(+_+:+<+[+}+|+c.3.U 1+2+3+4+5+6+7+8+9+0+a+b+c+d+e+9.P z z z z +., R -.;.{ ",
">.) < 1 i s z z z z P /+(+_+f+g+[+h+i+>.^ j+k+l+m+n+o+p+q+r+s+t+u+v+w+x+y+&.P z z z z +., R -.;.{ ",
">.) < 1 i s z z z [ P z+A+B+C+g+[+}+D+>.3.3.E+F+G+,+H+I+J+K+L+M+N+O+P+Q+U y+P z z z z +., R -.;.{ ",
">.) < 1 i s z z z z P (+A+R+:+g+S+}+D+>.3.T+U+n+p+V+6.W+X+Y+Y+Z+`+ @.@+@@@9.P z z z z +., R -.;.{ ",
">.) < 1 i s z z z z P (+#@B+:+$@%@}+i+,.Z.&@*@=@-@;@>@9.-.,@'@X+)@!@~@{@]@^@P z z z z +., R -.;.{ ",
">.) < 1 i s z z z z P (+#@/@(@$@_@}+i+,.F.:@<@[@}@|@F.-.1@a.}.2@X+3@4@5@6@F.P z z z z +., R -.;.{ ",
">.) < 1 i s z z z z P A+#@/@(@7@_@8@i+,.X.9@`+0@a@b@{.j+'.-.l.c@d@5+!@e@C.3.P z z z z +., R -.;.{ ",
">.) < 1 i s z z z f@P #@g@h@(@i@_@j@i+&+3.k@`+l@m@n@Y+'@}.l.U o@p@q@*@r@s@U P z z z z +., R -.;.{ ",
">.) < 1 i s z z z t@P #@g@h@u@i@v@j@i+,.*+w@x@y@z@A@B@X+2@c@c@C@D@E@F@|.3.G@&+z z z z +., R -.;.{ ",
">.) < 1 i s z z z H@I@]@J@K@L@M@_@N@P P P P O@P@E@Q@R@S@X+T@U@V@W@X@P P P &+o@z z z z Y@Z@J -.;.{ ",
">.) < 1 i s z z z z `@ #P P P P P P .#8.a.+#@###P $#%#&#*#*@=#-#;#P 5.>#,#z z z z z z '#D E >#;.{ ",
">.) [ 1 i s z z z z z @#@#@#@#@#)#z z z z z z !#~#P {#]#^#/#{#(#P _#1+Y z z z z z :#+.<#[#m.+ ;.{ ",
"}#) } 1 i s z z z z z z z |#1#| z z z z z z z z 2#3#4#P P P P &+5#o 6 z z z z z z +.6#7#1.8#9#@ ) ",
" .) 1 1 h A z z z z z z z z z z z z z z z z z z 0#a#Y b#4.9#l , z z z z z z z z :#Y@c#..R -.d#^ p ",
"4.) 3 3 9 e#f#z z z z z z z z z z z z z z z z z z z z z z z z z z z z z z z z :#+.g#h#1.i#9#^ j#p ",
"u k#X 9 9 i A j z z z z z z z z z z z z z z z z z z z z z z z z z z z z z z +.+.g#l#m#n#-.o#|@p#p ",
"{ 4.1 q#M r#A B y z z z z z z z z z z z z z z z z z z z z z z z z z :#:#+.+.Y@s#t#[#R b#u#*.Z.v#  ",
"  w#x#a C y#N j z z z z z z z z z z z z z z z z z z z z z z z z z z z#C +.6#A#Z@Y B#C#9#o@4.D#p   ",
"    E#y#F#G#a#b g#g#g#g#g#g#g#g#g#g#g#g#g#g#g#g#g#g#g#g#g#g#g#g#g#g#g#c#k @.H#I#E b#'.J#K#G p     ",
"    L#6 M#N#O#P#o o ................................................H#Q#R#].l 0.>#S#T#U#G V#p     ",
"      V#6 W#X#m.H H W#W#W#W#W#W#W#W#W#W#W#W#W#W#W#W#W#W#W#W#W#W#W#W#H Q 8#Y#>#9#Z#`## G  $p       ",
"          d d .$+$^ e+e+e+e+e+e+e+e+e+e+e+e+e+e+e+e+e+e+e+e+e+e+e+e+e+l.$.=.@$#$8 $$%$p p         ",
"              ' m Q &$*$*$*$*$*$*$*$*$*$*$*$*$*$*$*$*$*$*$*$*$*$*$*$*$*$*$*$Q =$0 p p             ",
"                  p p p p p p p p p p p p p p p p p p p p p p p p p p p p p p p p                 "};
