/* XPM */
static char * snap_on_xpm[] = {
"49 45 511 2",
"  	c None",
". 	c #D5D5D5",
"+ 	c #939393",
"@ 	c #000000",
"# 	c #101010",
"$ 	c #535353",
"% 	c #5B5B5B",
"& 	c #575958",
"* 	c #434444",
"= 	c #D3D3D3",
"- 	c #919191",
"; 	c #181818",
"> 	c #A0A0A0",
", 	c #E5E5E5",
"' 	c #FBFBFB",
") 	c #F3F3F3",
"! 	c #F2F2F2",
"~ 	c #F2F3F3",
"{ 	c #FAFAFA",
"] 	c #CCCCCC",
"^ 	c #727272",
"/ 	c #B3B3B3",
"( 	c #070707",
"_ 	c #A3A3A3",
": 	c #E7E8E8",
"< 	c #EEEEEE",
"[ 	c #CDCDCD",
"} 	c #B6B7B7",
"| 	c #B4B4B4",
"1 	c #B7B8B8",
"2 	c #BBBCBC",
"3 	c #BCBDBD",
"4 	c #C0C0C0",
"5 	c #D4D5D5",
"6 	c #E9E9E9",
"7 	c #C8C8C8",
"8 	c #B7B7B7",
"9 	c #0C0C0C",
"0 	c #CECECE",
"a 	c #F9F9F9",
"b 	c #CBCBCB",
"c 	c #B1B1B1",
"d 	c #BFC0C0",
"e 	c #C5C6C6",
"f 	c #C8C9C9",
"g 	c #CCCDCD",
"h 	c #CBCCCC",
"i 	c #C7C8C8",
"j 	c #F1F1F1",
"k 	c #C2C2C2",
"l 	c #D9D9D9",
"m 	c #050505",
"n 	c #F4F4F4",
"o 	c #BCBEBE",
"p 	c #CBCDCD",
"q 	c #D0D2D2",
"r 	c #D3D5D5",
"s 	c #D5D7D7",
"t 	c #D6D8D8",
"u 	c #D6D9D9",
"v 	c #D7D9D9",
"w 	c #D6D7D7",
"x 	c #D1D2D2",
"y 	c #BCBCBC",
"z 	c #979797",
"A 	c #999999",
"B 	c #BABBBB",
"C 	c #B5B7B7",
"D 	c #BFC1C1",
"E 	c #C9CBCB",
"F 	c #CFD2D2",
"G 	c #D9DCDC",
"H 	c #DDE0E0",
"I 	c #DEE1E1",
"J 	c #E0E2E2",
"K 	c #DCDEDE",
"L 	c #D8D9D9",
"M 	c #9B9B9B",
"N 	c #E1E1E1",
"O 	c #121212",
"P 	c #E3E4E4",
"Q 	c #CDCECE",
"R 	c #B3B4B4",
"S 	c #C0C1C1",
"T 	c #CACCCC",
"U 	c #D1D3D3",
"V 	c #D4D7D7",
"W 	c #D8DBDB",
"X 	c #DADDDD",
"Y 	c #DEE0E0",
"Z 	c #E1E3E3",
"` 	c #E3E5E5",
" .	c #E6E7E7",
"..	c #DADBDB",
"+.	c #878785",
"@.	c #888785",
"#.	c #B1B2B2",
"$.	c #BDBEBE",
"%.	c #C7C9C9",
"&.	c #E8E9E9",
"*.	c #7C7C7B",
"=.	c #EBEBEB",
"-.	c #DBDCDC",
";.	c #CFD1D1",
">.	c #D5D8D8",
",.	c #8B8B8B",
"'.	c #ACACAC",
").	c #DBDEDE",
"!.	c #E2E4E4",
"~.	c #E7E9E9",
"{.	c #EAEBEB",
"].	c #CACBCB",
"^.	c #8D8D8D",
"/.	c #FEFEFE",
"(.	c #010101",
"_.	c #F5F5F5",
":.	c #BDBDBD",
"<.	c #BEBEBE",
"[.	c #CACACA",
"}.	c #FDFDFD",
"|.	c #EFEFEF",
"1.	c #E5E7E7",
"2.	c #EBECEC",
"3.	c #EDEEEE",
"4.	c #2E2E2D",
"5.	c #1A1A1A",
"6.	c #C2C4C4",
"7.	c #C4C4C4",
"8.	c #ECECEC",
"9.	c #F7F7F7",
"0.	c #F6F6F6",
"a.	c #EAEAEA",
"b.	c #B5B5B5",
"c.	c #EBEDED",
"d.	c #EFF0F0",
"e.	c #EDEDED",
"f.	c #444444",
"g.	c #D2D5D5",
"h.	c #7F7F7F",
"i.	c #848484",
"j.	c #787878",
"k.	c #E3E6E6",
"l.	c #F0F1F1",
"m.	c #515151",
"n.	c #B8B9B9",
"o.	c #494949",
"p.	c #353535",
"q.	c #F1F2F2",
"r.	c #434343",
"s.	c #B8B8B8",
"t.	c #C5C5C5",
"u.	c #A7A7A7",
"v.	c #1D1D1D",
"w.	c #E4E4E4",
"x.	c #363636",
"y.	c #5A5A5A",
"z.	c #656565",
"A.	c #666666",
"B.	c #646464",
"C.	c #454545",
"D.	c #676766",
"E.	c #606060",
"F.	c #757575",
"G.	c #8F8F8F",
"H.	c #737373",
"I.	c #343434",
"J.	c #8A8A8A",
"K.	c #595959",
"L.	c #616161",
"M.	c #808080",
"N.	c #AAAAAA",
"O.	c #B2B2B2",
"P.	c #565656",
"Q.	c #4C4C4C",
"R.	c #373737",
"S.	c #414141",
"T.	c #707070",
"U.	c #6B6A68",
"V.	c #646361",
"W.	c #676563",
"X.	c #6A6967",
"Y.	c #737270",
"Z.	c #E0E0E0",
"`.	c #7C7C7C",
" +	c #ADADAD",
".+	c #868686",
"++	c #9A9A9A",
"@+	c #6F6F6F",
"#+	c #4E4E4E",
"$+	c #6B6B6B",
"%+	c #63625E",
"&+	c #6F6F6D",
"*+	c #7C7B79",
"=+	c #61605E",
"-+	c #323232",
";+	c #555453",
">+	c #767572",
",+	c #E6E6E6",
"'+	c #DEDEDE",
")+	c #838383",
"!+	c #A2A2A2",
"~+	c #908F8F",
"{+	c #818080",
"]+	c #7A7A78",
"^+	c #6D6C6B",
"/+	c #727170",
"(+	c #767675",
"_+	c #6C6C6C",
":+	c #B1AFAC",
"<+	c #868582",
"[+	c #81807C",
"}+	c #6F6E6B",
"|+	c #6F6E6C",
"1+	c #4E4D4C",
"2+	c #80807E",
"3+	c #666562",
"4+	c #404040",
"5+	c #626262",
"6+	c #525252",
"7+	c #91908E",
"8+	c #727270",
"9+	c #767775",
"0+	c #696A69",
"a+	c #515352",
"b+	c #585958",
"c+	c #636562",
"d+	c #5F605D",
"e+	c #828281",
"f+	c #696969",
"g+	c #6E6E6E",
"h+	c #888781",
"i+	c #B5B4B2",
"j+	c #B2B2B0",
"k+	c #C2C1BF",
"l+	c #C7C7C6",
"m+	c #B7B7B6",
"n+	c #605F5D",
"o+	c #222220",
"p+	c #4A4A4A",
"q+	c #777777",
"r+	c #B4B3B3",
"s+	c #80807F",
"t+	c #686B68",
"u+	c #5B5F5D",
"v+	c #5F6262",
"w+	c #5D6161",
"x+	c #525656",
"y+	c #4A4E4B",
"z+	c #3E423D",
"A+	c #51534F",
"B+	c #686967",
"C+	c #6A6A6A",
"D+	c #828077",
"E+	c #7F7D74",
"F+	c #747168",
"G+	c #6C6A62",
"H+	c #615E57",
"I+	c #57554F",
"J+	c #3F3D39",
"K+	c #242320",
"L+	c #9E9E9E",
"M+	c #929392",
"N+	c #5C5F5F",
"O+	c #626665",
"P+	c #4A4E50",
"Q+	c #424849",
"R+	c #43484A",
"S+	c #42474A",
"T+	c #3E4345",
"U+	c #363A3A",
"V+	c #2F332E",
"W+	c #2F322C",
"X+	c #3A3D38",
"Y+	c #6A6968",
"Z+	c #7D7D7D",
"`+	c #827F77",
" @	c #807D75",
".@	c #6D6A63",
"+@	c #615F58",
"@@	c #403F3B",
"#@	c #2E2C2A",
"$@	c #4B4B4B",
"%@	c #6D6D6D",
"&@	c #797979",
"*@	c #949392",
"=@	c #616565",
"-@	c #585D5D",
";@	c #3F4444",
">@	c #565957",
",@	c #5C5F5E",
"'@	c #4D5153",
")@	c #474C4D",
"!@	c #54585A",
"~@	c #515456",
"{@	c #3B4041",
"]@	c #2C2F2A",
"^@	c #2A2A23",
"/@	c #53524F",
"(@	c #7A7A7A",
"_@	c #817E75",
":@	c #7F7C74",
"<@	c #737068",
"[@	c #6D6A62",
"}@	c #403E39",
"|@	c #2F2E2B",
"1@	c #747474",
"2@	c #7B7D7D",
"3@	c #515657",
"4@	c #444847",
"5@	c #606262",
"6@	c #353939",
"7@	c #101111",
"8@	c #060606",
"9@	c #090909",
"0@	c #151717",
"a@	c #444647",
"b@	c #535657",
"c@	c #373C3E",
"d@	c #2B2C28",
"e@	c #383630",
"f@	c #706F6F",
"g@	c #737067",
"h@	c #57544E",
"i@	c #626464",
"j@	c #727677",
"k@	c #383B39",
"l@	c #464646",
"m@	c #313131",
"n@	c #1F1F1F",
"o@	c #1D1E1E",
"p@	c #383C3C",
"q@	c #44494C",
"r@	c #313534",
"s@	c #2A2922",
"t@	c #6E6D6B",
"u@	c #7F7D75",
"v@	c #7E7B73",
"w@	c #605E57",
"x@	c #55544D",
"y@	c #403D39",
"z@	c #2E2E2A",
"A@	c #5F6061",
"B@	c #404647",
"C@	c #484C4C",
"D@	c #4C5051",
"E@	c #2C2D2B",
"F@	c #A9A9A9",
"G@	c #4F4F4F",
"H@	c #3F3F3F",
"I@	c #292B2B",
"J@	c #484D50",
"K@	c #42494B",
"L@	c #1C1C17",
"M@	c #4E4D4B",
"N@	c #717171",
"O@	c #726F67",
"P@	c #6C6961",
"Q@	c #55534D",
"R@	c #3F3D38",
"S@	c #676868",
"T@	c #393E3F",
"U@	c #535756",
"V@	c #464A47",
"W@	c #242423",
"X@	c #474C4F",
"Y@	c #484E51",
"Z@	c #1D1D1A",
"`@	c #51504E",
" #	c #7D7A73",
".#	c #6B6861",
"+#	c #605D57",
"@#	c #3E3D38",
"##	c #2E2D2A",
"$#	c #484848",
"%#	c #646565",
"&#	c #373B3C",
"*#	c #4C5253",
"=#	c #3A3E3A",
"-#	c #080807",
";#	c #7B7B7B",
">#	c #545454",
",#	c #3C3C3C",
"'#	c #494E51",
")#	c #484D51",
"!#	c #242523",
"~#	c #6D6D6B",
"{#	c #F7F6E0",
"]#	c #7D7A72",
"^#	c #716F67",
"/#	c #5F5D56",
"(#	c #54524C",
"_#	c #3E3C38",
":#	c #69696A",
"<#	c #394143",
"[#	c #333837",
"}#	c #111210",
"|#	c #404141",
"1#	c #434A4D",
"2#	c #3F4649",
"3#	c #2D2F2E",
"4#	c #737372",
"5#	c #F1F0DA",
"6#	c #7E7B74",
"7#	c #716E66",
"8#	c #6A6860",
"9#	c #5E5C56",
"0#	c #53514C",
"a#	c #3E3C37",
"b#	c #6E6F6E",
"c#	c #2F3132",
"d#	c #363E3E",
"e#	c #3B4346",
"f#	c #252926",
"g#	c #1B1C1B",
"h#	c #464647",
"i#	c #4D4F52",
"j#	c #3B4247",
"k#	c #303538",
"l#	c #444545",
"m#	c #505050",
"n#	c #F0EFCD",
"o#	c #4B4B42",
"p#	c #4E4C4A",
"q#	c #7B7871",
"r#	c #6F6D65",
"s#	c #6A6760",
"t#	c #605D56",
"u#	c #54514C",
"v#	c #393733",
"w#	c #121313",
"x#	c #343A3B",
"y#	c #3B4347",
"z#	c #3E4443",
"A#	c #2A2E2D",
"B#	c #272828",
"C#	c #3B3B3B",
"D#	c #3C3E3E",
"E#	c #464A4D",
"F#	c #464C4F",
"G#	c #3D4247",
"H#	c #92927C",
"I#	c #515148",
"J#	c #403F36",
"K#	c #898161",
"L#	c #908F8A",
"M#	c #1B1B1C",
"N#	c #5A5D5E",
"O#	c #525657",
"P#	c #3C4143",
"Q#	c #393E42",
"R#	c #3F4548",
"S#	c #484C4F",
"T#	c #5B5D5F",
"U#	c #55595B",
"V#	c #525253",
"W#	c #B6B6B6",
"X#	c #A79F6C",
"Y#	c #4C4C48",
"Z#	c #3B3D3E",
"`#	c #494E52",
" $	c #42494D",
".$	c #42484C",
"+$	c #5A5E60",
"@$	c #4B4F52",
"#$	c #4E5255",
"$$	c #555556",
"%$	c #BFBFBF",
"&$	c #DADCDC",
"*$	c #E2DFD0",
"=$	c #F2F2E3",
"-$	c #B2B2B3",
";$	c #6A6B6C",
">$	c #46484A",
",$	c #8E8E8E",
"'$	c #C3C3C3",
")$	c #D1D1D1",
"!$	c #0B0B0B",
"~$	c #DBDDDD",
"{$	c #DCDCDC",
"]$	c #D2D2D2",
"^$	c #A5A5A5",
"/$	c #9C9C9C",
"($	c #E6E8E8",
"_$	c #ECEDED",
":$	c #E2E5E5",
"<$	c #F3F4F4",
"[$	c #878787",
"}$	c #B9B9B9",
"|$	c #E3E3E3",
"1$	c #F0F2F2",
"2$	c #575857",
"3$	c #C9C9C9",
"4$	c #909090",
"5$	c #EEF0F0",
"6$	c #D3D4D4",
"7$	c #E1E4E4",
"8$	c #EAECEC",
"9$	c #F4F5F5",
"0$	c #464948",
"a$	c #E4E5E5",
"b$	c #E8EAEA",
"c$	c #E8E8E8",
"d$	c #ECEEEE",
"e$	c #6C6C6B",
"f$	c #E2E3E3",
"g$	c #F0F0F0",
"h$	c #282828",
"i$	c #5D5D5D",
"j$	c #C1C1C1",
"k$	c #AAABAB",
"l$	c #232322",
"            . + @ # $ % % % % % % % % % % % % % % % % % % % % % % % % % % % & * + .               ",
"        = - ; > , ' ) ! ~ ) ) ) ) ) ) ) ) ) ) ) ) ) ) ) ) ) ) ) ) ) ) ) ) ) ) ) { ] ^ =           ",
"      / ( _ : < [ } | 1 2 3 3 3 3 3 3 3 3 3 3 3 3 3 3 3 3 3 3 3 3 3 3 3 3 3 3 3 4 5 6 7 7         ",
"    8 9 0 a b c 1 d e f ] ] ] ] ] ] ] ] ] ] ] ] ] ] ] ] ] ] ] ] ] ] ] ] ] ] ] g ] h i [ j k       ",
"  l m b n 1 | o e p q r s t t t t t t t t t t t t t t t t t t t t t t t t t u u v v w x y : w     ",
"  z A ' B C D E F r u G G G G G G G G G G G G G G G G G G G G G G G G G G G G H I I J K L M a     ",
"N O P Q R S T U V u u W G G G G G G G G G G G G G G G G G G G G G G G G G G G X Y Z `  .P ..+.<   ",
"> @.! #.$.%.U V u W G G G G G G G G G G G G G G G G G G G G G G G G G G G G G G G I ` &.&. .*.=.  ",
"@ -.5 1 e ;.>.u G G G G G G G G G G G G G G G G ,.@ @ @ @ @ @ @ '.G G G G G G G G ).!.~.{.{.].^./.",
"(._.:.<.h r u W G G G G G G G G G G G G G G G G @ [.n { }.{ |.4 @ G G G G G G G G G I 1.2.3.{.4.}.",
"5.}.| 6.q >.u G G G G G G G G G G G G G G G G G @ 7.8.9.{ 0.a.b.@ G G G G G G G G G I 1.c.d.e.O }.",
"f._.1 i g.W W G G G G G G G G G G G G G G G G G @ h.i.i.i.i.i.j.@ G G G G G G G G G I k.2.l.l.; { ",
"m.) n.h >.G G G G G G G G G G G G G G G G G G G @ o.M b b 4 A p.@ G G G G G G G G G I k.2.q.q.; a ",
"m.) 2 ] >.G G G G G G G G G G G G G G G G G G G @ r.s.t.t.t.u.v.@ G G G G G G G G G I k.2.q.~ ; a ",
"m.) 2 ] u G G G G G G G G G G G G G G G G G w.x.@ y.z.A.A.A.B.C.@ G G G G G G G G G I k.2.q.~ ; a ",
"m.) 3 ] u G G G G G G G G G G G G G b :.'.@ @ D.E.F.G.G.G.G.G.H.$ I.@ @ B.G G G G G I k.2.q.~ ; a ",
"m.) 3 ] u G G G G G G G G J.@ @ @ @ @ @ B.K.L.M.M N.b.b.b.b.b.O.- $ P.Q.R.S.G G G G I k.2.q.~ ; a ",
"m.) 3 ] u G G G G G T.@ @ @ U.V.W.X.Y._ z., Z.`. +,.J.i.i.i.i..+++j.@+`.H.#+$+G G G I k.2.q.~ ; a ",
"m.) 3 ] u G G G G G @ %+&+*+=+K.-+;+>+G.y.,+'+)+!+,.~+{+]+^+/+(+i.,._+j.h.T.@ G G G I k.2.q.~ ; a ",
"m.) 3 ] u G G G G G @ :+<+[+}+|+1+2+3+4+5+6+A.O.- 7+8+9+0+a+b+c+d+e+^ f+5+g+@ G G G I k.2.q.~ ; a ",
"m.) 3 ] u G G G G G @ h+i+j+k+l+m+n+o+p+H.f+q+r+s+t+u+v+w+x+x+y+z+A+B+C+h.h.@ G G G I k.2.q.~ ; a ",
"m.) 3 ] u G G G G G @ D+E+F+G+H+I+J+K+Q.F.T.L+M+N+O+P+Q+R+S+T+U+V+W+X+Y+Z+M.@ G G G I k.2.q.~ ; a ",
"m.) 3 ] u G G G G G @ `+ @F+.@+@I+@@#@$@%@&@*@=@-@;@>@,@'@)@!@~@{@]@^@/@(@h.@ G G G I k.2.q.~ ; a ",
"m.) 3 ] u G G G G 0.@ _@:@<@[@+@I+}@|@$@1@1@2@3@4@5@6@7@8@9@0@a@b@c@d@e@f@(@@ G G G I k.2.q.~ ; a ",
"m.) 3 ] u G G G G G @  @:@g@G++@h@}@|@$@1@i@j@;@,@k@I.l@m@n@n@o@p@q@r@s@t@M.@ G G G I k.2.q.~ ; a ",
"m.) 3 ] u G G G G G @ u@v@<@G+w@x@y@z@o.g+A@B@C@D@E@F@M.!+G@H@m@I@J@K@L@M@N@@ G G G I k.2.q.~ ; a ",
"m.) 3 ] u G G G G G @ E+v@O@P@w@Q@R@z@o._+S@T@U@V@W@_+!+) - B.f.m@X@Y@Z@`@_+@ G G G I k.2.q.~ ; a ",
"m.) 3 ] u G G G G G @ :@ #O@.#+#Q@@###$#^ %#&#*#=#-#r.&@M !+;#>#,#'#)#!#~#1@@ G G G I k.2.q.~ ; a ",
"m.) 3 ] u G G G G {#@ v@]#^#.#/#(#_###p+F.:#&#<#[#}#n@H@B.;#T.+ |#1#2#3#4#T.@ G G G I k.2.q.~ ; a ",
"m.) 3 ] u G G G G 5#@ 6#]#7#8#9#0#a###$#q+b#c#d#e#f#g#m@f.>#>#h#i#j#k#l#F.m#p+G G G I k.2.q.~ ; a ",
"m.) 3 ] u G G G G n#o#p#q#r#s#t#u#v#@ @ @ @ w#x#y#z#A#B#m@C#D#E#F#G#@ @ @ p++ G G G I k.2.q.~ ; a ",
"m.) 3 ] u G G G G G H#I#@ @ @ @ @ @ J#L.- K#L#M#@ N#O#P#Q#R#S#T#U#@ V#> W#G G G G G I k.2.q.~ ; a ",
"m.) 3 ] u G G G G G G L#L#L#L#L#X#G G G G G G Y#Z#@ `# $.$+$@$#$@ $$L+%$G G G G G G I k.2.q.~ ; a ",
"o.) 3 g u &$G G G G G G G *$=$! G G G G G G G G -$;$>$@ @ @ @ p+,$'$)$G G G G G G G I 1.c.~ ) !$' ",
"W@a 2 ] u ~$G G G G G G G G G G G G G G G G G G {$]$4 ^$G./$O.[.G G G G G G G G G G J ($_$~ e.@ /.",
"i.}.3 h v H H G G G G G G G G G G G G G G G G G G G G G G G G G G G G G G G G G G H :$~.3.<$n.[$/.",
"}$|$[ T v I J ~$G G G G G G G G G G G G G G G G G G G G G G G G G G G G G G G G ).Z ($c.1$n 2$3$/.",
"9.4$N 7 t J !.Z H X G G G G G G G G G G G G G G G G G G G G G G G G G G G G X H Z 1.{.5$) K 8@'   ",
"  b.a h 6$Y ` 1.` 7$Z Z Z Z Z Z Z Z Z Z Z Z Z Z Z Z Z Z Z Z Z Z Z Z Z Z Z Z 7$` ($8$3.~ 9$0$}$/.  ",
"    b.. g &$a$~.~.~.~.~.~.~.~.~.~.~.~.~.~.~.~.~.~.~.~.~.~.~.~.~.~.~.~.~.~.~.~.b$_$d.) 9$*.> /.    ",
"    c$[.}$6$J ~.c._$d$d$d$d$d$d$d$d$d$d$d$d$d$d$d$d$d$d$d$d$d$d$d$d$d$d$d$d$3.d.q.<$9$e$> ! /.    ",
"      ! [.'. +f$&._$g$j ! ! ) ) ) ) ) ) ) ) ) ) ) ) ) ) ) ) ) ) ) ) ) ) ) ) ~ ) <$i h$> ) /.      ",
"          L ..i$C+_ 3 $.4 j$k k k k k k k k k k k k k k k k k k k k k k k k k$^ l$@ b /./.        ",
"              0.&.F@%@$ $ $ $ $ $ $ $ $ $ $ $ $ $ $ $ $ $ $ $ $ $ $ $ $ $ $ y.,.&$/./.            ",
"                  /./././././././././././././././././././././././././././././././.                "};
